<?xml version="1.0" encoding="utf-8"?>
<!-- Generator: Adobe Illustrator 22.1.0, SVG Export Plug-In . SVG Version: 6.00 Build 0)  -->
<svg version="1.0" id="Redraw" xmlns="http://www.w3.org/2000/svg" xmlns:xlink="http://www.w3.org/1999/xlink" x="0px" y="0px"
	 width="2160px" height="680px" viewBox="0 0 2160 680" enable-background="new 0 0 2160 680" xml:space="preserve">
<g id="Sub-Z">
	<g id="Arcade_1_">
		<g>
			<g>
				<path d="M353.055,499.037c-1.829,0-3.702-0.075-5.566-0.223c-25.257-2.146-43.828-14.714-53.78-36.354
					c-1.7-3.675-4.55-12.318-12.561-47.024l-109.404-9.532c-13.257,31.563-17.923,40.085-20.566,43.723
					c-12.11,17.83-29.894,27.251-51.448,27.252c-2.26,0-4.599-0.103-6.951-0.305l-0.173-0.017
					c-17.21-1.724-31.827-9.035-43.444-21.733c-11.917-13.011-17.104-28.729-15.417-46.719c0.488-7.919,3.033-16.55,7.566-25.66
					L172.078,104.5c7.983-16.37,19.45-29.75,34.081-39.771c13.175-9.021,28.023-13.594,44.134-13.594c2.517,0,5.1,0.113,7.678,0.336
					c38.277,3.266,64.238,26.602,75.06,67.485l78.343,295.911c2.831,10.939,3.995,20.141,3.576,28.197l-0.016,0.299l-0.03,0.299
					c-1.765,17.616-9.445,31.755-22.827,42.021C380.516,494.545,367.389,499.037,353.055,499.037z M251.995,287.742l-11.118-48.338
					c-5.289,13.476-11.527,28.789-18.689,45.875L251.995,287.742z"/>
				<path d="M250.293,63.636c2.169,0,4.367,0.096,6.6,0.29c33.168,2.83,54.525,22.233,64.053,58.23l78.344,295.912
					c2.465,9.527,3.524,17.649,3.176,24.35c-1.414,14.119-7.411,25.227-17.997,33.349c-9.366,7.179-19.841,10.77-31.414,10.77
					c-1.509,0-3.036-0.061-4.582-0.183c-20.827-1.77-35.293-11.472-43.407-29.115c-2.118-4.581-6.708-22.407-13.763-53.465
					l-127.576-11.116c-12.001,28.94-19.586,45.525-22.763,49.76c-9.87,14.645-23.617,21.962-41.234,21.962
					c-1.914,0-3.873-0.086-5.879-0.259c-14.119-1.414-25.939-7.319-35.467-17.733c-9.529-10.404-13.581-22.845-12.174-37.319
					c0.356-6.352,2.472-13.407,6.352-21.175L183.312,109.98c7.055-14.465,17.023-26.112,29.909-34.937
					C224.328,67.439,236.688,63.637,250.293,63.636 M268.01,301.608l-24.351-105.872c-7.411,22.234-20.645,55.765-39.702,100.579
					L268.01,301.608 M250.296,38.636v25V38.636c-18.683,0.001-35.907,5.309-51.199,15.779
					c-16.441,11.259-29.311,26.266-38.255,44.606l-0.077,0.157l-0.075,0.158L30.058,377c-5.206,10.497-8.157,20.63-8.777,30.132
					c-1.943,21.274,4.506,40.677,18.666,56.139c13.75,15.027,31.05,23.685,51.413,25.724l0.173,0.017l0.173,0.015
					c2.707,0.233,5.406,0.351,8.023,0.351c25.81,0,47.12-11.25,61.659-32.539c2.734-3.78,6.888-10.944,18.321-37.695l91.324,7.957
					c7.077,30.008,9.571,36.805,11.339,40.627c5.969,12.979,14.624,23.35,25.703,30.781c10.762,7.218,23.641,11.509,38.28,12.753
					l0.074,0.006l0.074,0.006c2.19,0.173,4.394,0.261,6.55,0.261c17.147,0,32.834-5.359,46.623-15.928
					c16.01-12.283,25.573-29.812,27.665-50.7l0.06-0.596l0.031-0.598c0.486-9.347-0.803-19.784-3.939-31.909l-0.018-0.069
					l-0.018-0.068l-78.344-295.912c-5.995-22.647-16.261-40.699-30.514-53.654c-14.78-13.434-33.48-21.202-55.582-23.087
					C256.113,38.765,253.168,38.636,250.296,38.636L250.296,38.636z"/>
			</g>
			<g>
				<path d="M623.041,495.937c-2.157,0-4.376-0.104-6.595-0.308c-20.764-1.748-37.042-11.043-48.388-27.627l-65.773-95.312
					c-0.577,13.068-1.579,28.063-3.011,45.119c-0.923,20.125-8.441,36.036-22.346,47.293c-11.844,9.588-25.856,14.45-41.649,14.45
					c-2.385,0-4.845-0.113-7.31-0.336c-18.504-1.725-33.605-9.329-44.914-22.606c-11.42-13.388-16.147-30.148-14.042-49.816
					l25.928-296.315c1.681-19.837,9.087-35.577,22.012-46.747c11.284-9.759,25.45-14.708,42.102-14.708
					c2.473,0,5.038,0.111,7.624,0.33l92.648,7.94c44.597,4.129,79.779,17.467,104.655,39.651
					c27.022,24.289,40.706,58.05,40.706,100.379c0,5.771-0.186,11.892-0.551,18.193l-0.011,0.197l-0.018,0.197
					c-2.736,30.465-14.505,55.905-34.977,75.611c-14.004,13.69-31.174,23.92-51.213,30.539l55.522,70.824
					c10.454,13.505,15.059,27.651,13.735,42.109c-1.321,17.264-8.72,32.206-21.992,44.413
					C653.249,490.377,639.072,495.937,623.041,495.937z M545.084,223.517c1.666,0.147,3.291,0.223,4.811,0.223
					c13.653,0,19.142-5.271,20.252-19.451l0.02-0.229c0.673-6.949-0.357-12.122-3.06-15.377c-3.954-4.761-12.197-6.415-18.416-6.963
					l-28.829-2.587l-3.649,41.793L545.084,223.517z"/>
				<path d="M459.056,61.524c2.133,0,4.32,0.095,6.566,0.285l92.638,7.94c41.993,3.888,74.458,16.064,97.403,36.526
					c24.35,21.887,36.526,52.233,36.526,91.05c0,5.648-0.182,11.472-0.531,17.468c-2.472,27.526-12.886,50.115-31.231,67.758
					c-16.593,16.235-37.94,26.997-64.052,32.29l67.228,85.756c8.47,10.943,12.176,22.06,11.116,33.349
					c-1.058,14.119-7.063,26.203-17.998,36.261c-9.598,8.822-20.828,13.229-33.679,13.229c-1.8,0-3.63-0.086-5.494-0.259
					c-16.939-1.414-30-8.825-39.173-22.233l-88.403-128.103c1.06,18.353,0,46.41-3.175,84.167
					c-0.712,16.593-6.617,29.38-17.734,38.379c-9.611,7.781-20.875,11.666-33.783,11.666c-2.021,0-4.082-0.095-6.183-0.286
					c-15.177-1.414-27.353-7.493-36.526-18.262c-9.18-10.762-12.878-24.26-11.116-40.497l25.939-296.439
					c1.405-16.583,7.319-29.379,17.733-38.379C434.122,65.41,445.434,61.524,459.056,61.524 M549.895,236.239
					c20.196,0,31.096-10.321,32.715-30.975c2.118-21.878-8.825-33.878-32.819-35.996l-41.291-3.705l-5.823,66.699l41.291,3.705
					C546.023,236.149,548.002,236.239,549.895,236.239 M459.056,36.524c-19.741,0-36.659,5.974-50.283,17.757
					c-15.471,13.37-24.318,31.932-26.289,55.165l-25.913,296.139c-2.415,22.843,3.454,43.29,16.98,59.145
					c13.483,15.83,31.395,24.895,53.226,26.929l0.032,0.003l0.032,0.003c2.838,0.257,5.678,0.387,8.438,0.387
					c18.728,0,35.387-5.799,49.514-17.236c16.507-13.363,25.821-32.785,26.956-56.191c0.261-3.115,0.508-6.158,0.74-9.14
					l45.293,65.633c13.369,19.506,33.272,30.902,57.568,32.961c2.581,0.236,5.168,0.356,7.691,0.356
					c18.992,0,36.488-6.854,50.597-19.822c15.661-14.404,24.403-32.09,25.993-52.574c1.595-17.674-3.875-34.747-16.26-50.746
					l-0.047-0.061l-0.047-0.06l-45.162-57.609c15.018-6.87,28.305-15.918,39.723-27.073c22.68-21.85,35.707-49.93,38.719-83.462
					l0.035-0.393l0.023-0.394c0.38-6.545,0.573-12.91,0.573-18.917c0-46.026-15.077-82.915-44.813-109.643l-0.036-0.033
					l-0.036-0.033c-26.914-24.001-64.508-38.388-111.737-42.761l-0.085-0.008l-0.085-0.007l-92.638-7.94
					C464.798,36.65,461.879,36.524,459.056,36.524L459.056,36.524z M529.751,209.591l1.474-16.888l16.331,1.465
					c6.909,0.61,9.395,2.128,9.887,2.481c0.161,0.442,0.668,2.219,0.282,6.207l-0.022,0.228l-0.018,0.228
					c-0.386,4.924-1.443,6.707-1.65,7.013c-0.303,0.161-1.943,0.915-6.141,0.915c-1.154,0-2.409-0.059-3.729-0.176L529.751,209.591
					L529.751,209.591z"/>
			</g>
			<g>
				<path d="M882.037,496.206c-12.94,0-25.187-0.944-36.402-2.806c-52.688-8.239-95.549-32.558-127.393-72.279
					c-30.971-38.419-46.685-84.694-46.685-137.511c0-13.298,1.122-26.786,3.333-40.091c8.524-55.144,31.808-100.747,69.204-135.542
					c37.691-35.065,83.39-52.844,135.826-52.844c11.154,0,22.844,0.94,34.745,2.794c27.649,4.485,53.547,13.94,77.051,28.115
					c32.104,19.265,48.394,42.285,48.394,68.405c0,16.254-5.664,30.602-16.834,42.644c-11.41,12.313-25.625,18.558-42.249,18.558
					c-11.709,0-27.004-5.758-48.131-18.122c-11.909-6.887-24.812-11.349-38.293-13.231l-0.163-0.024
					c-3.967-0.607-8.14-0.915-12.403-0.915c-19.455,0-35.314,6.985-48.484,21.354c-13.743,14.988-22.657,35.566-26.497,61.167
					l-0.047,0.29c-1.283,7.367-1.933,14.66-1.933,21.677c0,21.511,5.231,39.493,15.549,53.444
					c10.771,14.664,25.38,23.255,44.684,26.293c4.628,0.616,9.188,0.929,13.552,0.929c8.438,0,19.045-1.646,31.529-4.89
					c14.976-3.887,25.14-5.696,31.994-5.696c18.665,0,34.292,7.502,46.449,22.297c12.051,14.692,16.599,31.14,13.524,48.896
					c-3.906,24.511-19.77,42.831-47.149,54.451l-0.095,0.04C934.956,491.968,910.37,496.206,882.037,496.206z"/>
				<path d="M879.921,67.633c10.587,0,21.52,0.885,32.82,2.646c26.112,4.236,50.289,13.061,72.521,26.468
					c28.23,16.941,42.349,36.179,42.349,57.701c0,13.061-4.499,24.441-13.498,34.143c-9,9.711-20.033,14.558-33.085,14.558
					c-9.18,0-23.118-5.467-41.818-16.41c-13.416-7.759-27.709-12.705-42.878-14.823c-4.592-0.702-9.355-1.058-14.294-1.058
					c-22.944,0-42.174,8.469-57.699,25.408c-15.534,16.941-25.41,39.528-29.644,67.758c-1.414,8.122-2.118,16.062-2.118,23.821
					c0,24.351,5.997,44.648,17.999,60.877c12.703,17.295,30.346,27.708,52.936,31.231c5.293,0.712,10.404,1.058,15.35,1.058
					c9.529,0,21.084-1.761,34.674-5.293c13.581-3.524,23.2-5.294,28.849-5.294c14.823,0,27.081,5.915,36.792,17.733
					c9.702,11.829,13.316,24.798,10.851,38.908c-3.176,20.115-16.41,35.112-39.702,44.996
					c-18.709,7.759-41.472,11.645-68.288,11.645c-12.357,0-23.821-0.885-34.408-2.646c-49.76-7.768-89.644-30.348-119.634-67.759
					c-29.297-36.343-43.938-79.577-43.938-129.692c0-12.705,1.06-25.41,3.176-38.115c8.115-52.58,29.909-95.367,65.376-128.368
					C788.077,84.133,830.508,67.633,879.921,67.633 M879.921,42.633c-55.697,0-104.26,18.905-144.339,56.191
					c-39.491,36.745-64.062,84.761-73.034,142.72c-2.316,13.954-3.49,28.107-3.49,42.067c0,55.728,16.635,104.628,49.444,145.345
					c33.841,42.206,79.31,68.041,135.141,76.786c11.876,1.968,24.793,2.965,38.395,2.965c29.983,0,56.18-4.56,77.864-13.552
					l0.095-0.039l0.095-0.04c39.292-16.674,51.387-43.911,54.597-63.904c3.64-21.165-1.953-41.518-16.183-58.867
					c-14.454-17.59-33.855-26.879-56.122-26.879c-8.05,0-18.884,1.88-35.129,6.096c-11.469,2.981-21.019,4.491-28.394,4.491
					c-3.77,0-7.724-0.269-11.755-0.8c-16.026-2.552-27.591-9.321-36.382-21.289l-0.024-0.033l-0.024-0.033
					c-8.815-11.919-13.099-26.969-13.099-46.012c0-6.301,0.588-12.873,1.747-19.533l0.05-0.289l0.044-0.29
					c3.464-23.094,11.319-41.454,23.347-54.571c10.822-11.807,23.3-17.304,39.273-17.304c3.633,0,7.17,0.259,10.513,0.771
					l0.162,0.025l0.162,0.023c12.024,1.679,23.068,5.496,33.76,11.67c23.097,13.51,40.382,19.803,54.393,19.803
					c19.96,0,37.741-7.803,51.422-22.565c13.187-14.217,20.162-31.902,20.162-51.136c0-16.145-5.193-31.406-15.434-45.36
					c-9-12.262-22.136-23.625-39.043-33.772c-24.867-14.99-52.249-24.987-81.39-29.714l-0.077-0.012l-0.077-0.012
					C904.054,43.623,891.717,42.633,879.921,42.633L879.921,42.633z"/>
			</g>
			<g>
				<path d="M1282.102,499.037c-1.829,0-3.702-0.075-5.567-0.223c-25.255-2.146-43.826-14.714-53.779-36.353
					c-1.7-3.68-4.55-12.322-12.56-47.025l-109.405-9.532c-13.257,31.563-17.922,40.085-20.566,43.723
					c-12.11,17.83-29.894,27.251-51.448,27.252c-2.26,0-4.599-0.103-6.951-0.305l-0.173-0.017
					c-17.21-1.724-31.827-9.035-43.444-21.733c-11.917-13.011-17.104-28.729-15.417-46.719c0.488-7.919,3.033-16.55,7.566-25.66
					L1101.124,104.5c7.984-16.37,19.45-29.751,34.08-39.771c13.177-9.021,28.025-13.594,44.136-13.594
					c2.516,0,5.1,0.113,7.677,0.336c38.277,3.266,64.237,26.602,75.061,67.485l78.344,295.911
					c2.83,10.941,3.994,20.143,3.575,28.198l-0.016,0.299l-0.03,0.298c-1.764,17.616-9.444,31.755-22.826,42.021
					C1309.563,494.546,1296.435,499.037,1282.102,499.037z M1181.041,287.742l-11.117-48.337
					c-5.289,13.478-11.526,28.788-18.689,45.875L1181.041,287.742z"/>
				<path d="M1179.34,63.636c2.169,0,4.367,0.096,6.6,0.29c33.169,2.83,54.525,22.233,64.053,58.23l78.344,295.912
					c2.465,9.527,3.524,17.649,3.176,24.35c-1.414,14.119-7.411,25.227-17.998,33.349c-9.365,7.179-19.841,10.77-31.414,10.77
					c-1.509,0-3.036-0.061-4.582-0.183c-20.827-1.77-35.293-11.472-43.407-29.115c-2.118-4.581-6.708-22.407-13.763-53.465
					l-127.576-11.116c-12.001,28.94-19.586,45.525-22.763,49.76c-9.87,14.645-23.617,21.962-41.234,21.962
					c-1.914,0-3.873-0.086-5.879-0.259c-14.119-1.414-25.939-7.319-35.467-17.733c-9.529-10.404-13.581-22.845-12.174-37.319
					c0.356-6.352,2.472-13.407,6.352-21.175l130.75-277.913c7.055-14.465,17.023-26.112,29.909-34.937
					C1153.375,67.439,1165.735,63.637,1179.34,63.636 M1197.057,301.608l-24.351-105.872
					c-7.411,22.234-20.645,55.765-39.702,100.579L1197.057,301.608 M1179.344,38.636v25V38.636
					c-18.683,0.001-35.907,5.309-51.199,15.779c-16.441,11.259-29.311,26.267-38.255,44.606l-0.077,0.157l-0.074,0.158L959.105,377
					c-5.207,10.497-8.158,20.629-8.777,30.133c-1.943,21.274,4.506,40.677,18.666,56.139c13.75,15.027,31.05,23.685,51.413,25.724
					l0.173,0.017l0.173,0.015c2.707,0.233,5.406,0.351,8.023,0.351c25.81,0,47.12-11.25,61.659-32.539
					c2.734-3.78,6.888-10.944,18.321-37.695l91.324,7.957c7.077,30.008,9.571,36.805,11.339,40.627
					c5.969,12.979,14.624,23.35,25.703,30.781c10.762,7.218,23.641,11.509,38.28,12.753l0.074,0.006l0.074,0.006
					c2.19,0.173,4.394,0.261,6.55,0.261c17.147,0,32.834-5.359,46.623-15.928c16.009-12.282,25.573-29.812,27.665-50.7l0.06-0.596
					l0.031-0.598c0.486-9.347-0.803-19.784-3.939-31.908l-0.018-0.069l-0.018-0.068l-78.344-295.912
					c-5.995-22.647-16.261-40.699-30.513-53.654c-14.78-13.434-33.48-21.202-55.582-23.087
					C1185.16,38.765,1182.215,38.636,1179.344,38.636L1179.344,38.636z"/>
			</g>
			<g>
				<path d="M1385.146,503.088c-17.918,0-32.579-4.618-43.576-13.728c-11.061-9.163-18.178-22.646-21.153-40.076l-51.947-292.601
					l-0.047-0.483c-0.392-3.974-0.59-7.948-0.59-11.811c0-16.048,5.101-30.173,15.159-41.983
					c9.983-11.725,23.287-19.19,39.541-22.187l87.076-15.397c15.794-2.566,31.429-3.867,46.47-3.867
					c52.782,0,97.412,16.621,132.649,49.402c34.879,32.458,57.616,77.55,67.583,134.026c2.589,15.203,3.896,30.335,3.896,45.051
					c0,50.517-15.543,94.057-46.198,129.41c-30.554,35.237-72.624,57.817-125.043,67.112l-90.825,15.842
					C1394.164,502.654,1389.794,503.088,1385.146,503.088z M1438.699,368.155l27.421-4.753
					c40.963-7.083,60.039-30.587,60.039-73.969c0-8.008-0.82-16.505-2.438-25.255c-12.589-70.077-48.56-78.174-74.522-78.174
					c-5.909,0-12.461,0.645-19.474,1.916l-22.144,3.749L1438.699,368.155z"/>
				<path d="M1456.08,73.454c49.76,0,91.132,15.352,124.135,46.054c32.994,30.704,54.259,73.051,63.787,127.047
					c2.465,14.475,3.705,28.767,3.705,42.878c0,47.641-14.383,88.055-43.143,121.222c-28.767,33.176-68.022,54.169-117.781,62.994
					l-91.05,15.881c-3.176,0.704-6.708,1.058-10.587,1.058c-30,0-47.468-14.475-52.407-43.407l-51.878-292.205
					c-0.347-3.523-0.529-7.055-0.529-10.587c0-13.053,4.061-24.351,12.176-33.879c8.113-9.529,18.875-15.525,32.291-17.999
					l86.814-15.352C1426.784,74.695,1441.605,73.454,1456.08,73.454 M1428.553,382.6l39.702-6.881
					c46.931-8.115,70.404-36.874,70.404-86.285c0-8.817-0.885-17.999-2.647-27.528c-10.587-58.932-39.527-88.402-86.814-88.402
					c-6.708,0-13.946,0.71-21.703,2.116l-34.409,5.823L1428.553,382.6 M1456.08,48.454c-15.711,0-32.021,1.356-48.475,4.029
					l-0.172,0.028l-0.172,0.03l-86.814,15.352l-0.09,0.016l-0.09,0.017c-19.154,3.532-34.897,12.406-46.793,26.377
					c-12.036,14.132-18.141,30.984-18.141,50.086c0,4.271,0.219,8.657,0.649,13.035l0.095,0.966l0.17,0.956l51.867,292.144
					c3.503,20.413,12.077,36.391,25.483,47.497c13.298,11.016,30.642,16.601,51.55,16.601c5.434,0,10.601-0.509,15.37-1.515
					l90.563-15.796l0.035-0.006l0.035-0.006c55.312-9.809,99.826-33.775,132.304-71.232c32.683-37.692,49.254-83.987,49.254-137.6
					c0-15.415-1.366-31.253-4.06-47.075l-0.013-0.074l-0.013-0.074c-10.449-59.213-34.463-106.653-71.375-141.003
					C1559.618,66.202,1512.124,48.454,1456.08,48.454L1456.08,48.454z M1422.077,201.893l9.589-1.623l0.144-0.024l0.144-0.026
					c6.278-1.138,12.08-1.715,17.243-1.715c23.291,0,51.409,7.709,62.208,67.822l0.011,0.063l0.012,0.063
					c1.48,8.002,2.23,15.734,2.23,22.981c0,37.194-14.853,55.632-49.664,61.651l-15.151,2.626L1422.077,201.893L1422.077,201.893z"
					/>
			</g>
			<g>
				<path d="M1821.503,495.678c-4.24,0-8.729-0.424-13.343-1.259l-134.078-25.967c-15.727-2.968-28.869-10.277-39.004-21.715
					c-10.341-11.662-15.585-25.762-15.585-41.904c0-4.469,0.639-9.152,1.899-13.93l55.5-285.425
					c9.513-48.614,40.135-58.816,64.148-58.816c4.878,0,9.841,0.413,14.75,1.227l0.329,0.059l128.775,24.909
					c16.673,3.426,29.642,10.915,38.548,22.258c8.797,11.223,13.255,24.236,13.255,38.688c0,17.054-5.987,31.907-17.797,44.146
					c-11.925,12.369-26.707,18.643-43.934,18.643c-4.725,0-9.297-0.44-13.591-1.307l-66.48-12.938l-4.836,25.251l59.814,11.875
					c16.657,3.424,29.742,10.836,38.977,22.048c9.269,11.253,13.968,24.346,13.968,38.915c0,17.486-6.129,32.482-18.218,44.571
					c-12.091,12.088-27.086,18.218-44.57,18.218c-4.302,0-8.801-0.425-13.372-1.263l-60.337-11.892l-5.392,28.379l70.867,13.993
					c16.387,3.04,29.231,10.362,38.182,21.764c8.796,11.219,13.254,24.232,13.254,38.685c0,17.001-5.871,31.824-17.449,44.06
					C1854.01,489.378,1839.113,495.678,1821.503,495.678z"/>
				<path d="M1741.041,59.162c4.234,0,8.469,0.356,12.705,1.058l128.634,24.88c13.763,2.828,24.167,8.735,31.231,17.733
					c7.055,9,10.587,19.322,10.587,30.968c0,13.763-4.764,25.591-14.292,35.466c-9.529,9.884-21.175,14.823-34.938,14.823
					c-3.886,0-7.593-0.348-11.116-1.06l-78.874-15.35l-9.529,49.76l71.993,14.292c13.763,2.83,24.35,8.735,31.762,17.734
					c7.411,8.998,11.116,19.32,11.116,30.967c0,14.119-4.855,26.03-14.557,35.732c-9.711,9.71-21.622,14.557-35.732,14.557
					c-3.532,0-7.237-0.347-11.117-1.058l-72.522-14.294l-10.058,52.936l83.11,16.41c13.407,2.474,23.638,8.206,30.702,17.205
					c7.055,8.998,10.587,19.32,10.587,30.967c0,13.763-4.682,25.591-14.028,35.467c-9.355,9.875-21.092,14.821-35.203,14.821
					c-3.532,0-7.237-0.356-11.116-1.058l-133.928-25.939c-13.059-2.465-23.737-8.379-32.025-17.733
					c-8.288-9.348-12.44-20.555-12.44-33.614c0-3.524,0.529-7.23,1.587-11.118l55.583-285.852
					C1695.516,75.399,1712.803,59.162,1741.041,59.162 M1741.041,34.162c-20.619,0-37.865,6.376-51.258,18.951
					c-12.503,11.739-20.966,28.544-25.154,49.95l-55.43,285.066c-1.464,5.676-2.206,11.291-2.206,16.704
					c0,19.289,6.303,36.179,18.734,50.199c11.999,13.542,27.492,22.192,46.042,25.704l133.864,25.926l0.149,0.029l0.15,0.027
					c5.344,0.968,10.583,1.458,15.571,1.458c20.879,0,39.328-7.825,53.352-22.628c13.662-14.438,20.879-32.644,20.879-52.661
					c0-17.316-5.354-32.925-15.913-46.392c-10.878-13.859-26.244-22.715-45.677-26.335l-58.616-11.574l0.726-3.822l47.826,9.426
					l0.162,0.032l0.163,0.03c5.313,0.974,10.57,1.468,15.627,1.468c20.625,0,39.093-7.565,53.408-21.878
					c14.315-14.315,21.881-32.783,21.881-53.411c0-17.544-5.658-33.31-16.818-46.86c-11.097-13.473-26.582-22.332-46.025-26.329
					l-0.083-0.017l-0.083-0.016l-47.637-9.457l0.142-0.743l54.19,10.546c5.077,1.018,10.447,1.534,15.962,1.534
					c20.46,0,38.765-7.771,52.937-22.472c13.927-14.434,21.293-32.701,21.293-52.817c0-17.315-5.354-32.924-15.912-46.392
					c-10.793-13.748-26.224-22.76-45.875-26.798l-0.142-0.029l-0.142-0.028l-128.634-24.88l-0.328-0.063l-0.33-0.055
					C1752.254,34.632,1746.603,34.162,1741.041,34.162L1741.041,34.162z"/>
			</g>
		</g>
		<path d="M1844.005,179.557c5.077,1.018,10.447,1.534,15.963,1.534c20.459,0,38.765-7.771,52.937-22.472
			c13.928-14.434,21.293-32.701,21.293-52.817c0-17.315-5.353-32.923-15.912-46.392c-10.794-13.749-26.225-22.76-45.875-26.798
			l-0.142-0.029l-0.142-0.028L1743.493,7.675l-0.328-0.063l-0.329-0.055c-5.582-0.926-11.233-1.395-16.795-1.395
			c-20.619,0-37.865,6.376-51.258,18.951c-12.503,11.739-20.966,28.544-25.155,49.95l-14.567,74.914
			c-12.753-30.217-30.402-55.911-52.816-76.77c-37.628-35.005-85.122-52.753-141.166-52.753c-15.711,0-32.02,1.356-48.474,4.029
			l-0.172,0.028l-0.172,0.03l-86.814,15.352l-0.09,0.016l-0.09,0.017c-19.154,3.531-34.897,12.406-46.793,26.377
			c-1.59,1.867-3.069,3.784-4.452,5.744c-6.096-15.419-14.593-28.143-25.375-37.944c-14.78-13.434-33.48-21.202-55.582-23.087
			c-2.905-0.251-5.849-0.38-8.721-0.38v12.5c0,0,0,0,0,0l-0.001-12.5c-18.682,0.001-35.906,5.309-51.198,15.779
			c-16.441,11.259-29.311,26.266-38.255,44.607l-0.077,0.157l-0.074,0.158L956.196,323.3c-8.859-3.868-18.525-5.876-28.812-5.876
			c-8.05,0-18.884,1.88-35.129,6.096c-11.469,2.981-21.019,4.491-28.394,4.491c-3.771,0-7.724-0.269-11.755-0.8
			c-16.026-2.552-27.591-9.321-36.382-21.289l-0.024-0.033l-0.024-0.033c-8.814-11.918-13.099-26.969-13.099-46.012
			c0-6.301,0.588-12.873,1.747-19.533l0.05-0.289l0.044-0.29c3.464-23.094,11.319-41.454,23.347-54.571
			c10.822-11.807,23.3-17.304,39.273-17.304c3.632,0,7.17,0.259,10.513,0.771l0.162,0.025l0.162,0.023
			c12.025,1.679,23.069,5.497,33.762,11.672c23.096,13.509,40.381,19.801,54.391,19.801c19.96,0,37.741-7.803,51.422-22.565
			c13.187-14.217,20.162-31.902,20.162-51.136c0-16.145-5.193-31.406-15.434-45.36c-8.999-12.262-22.136-23.625-39.043-33.772
			c-24.867-14.99-52.249-24.987-81.39-29.714l-0.077-0.012l-0.077-0.012c-12.536-1.953-24.873-2.944-36.669-2.944
			c-55.697,0-104.26,18.905-144.339,56.191c-11.395,10.603-21.54,22.149-30.434,34.597c-7.476-17.538-18.409-32.827-32.773-45.739
			l-0.036-0.033l-0.036-0.033c-26.914-24.001-64.508-38.388-111.737-42.761l-0.085-0.008l-0.085-0.007l-92.637-7.94
			c-2.959-0.251-5.878-0.377-8.701-0.377c-19.741,0-36.659,5.974-50.283,17.757c-15.471,13.37-24.318,31.932-26.289,55.165
			l-9.698,110.834L330.113,87.757c-5.995-22.647-16.261-40.699-30.513-53.654c-14.78-13.434-33.48-21.202-55.582-23.087
			c-2.905-0.251-5.849-0.38-8.721-0.38v12.5c0,0,0,0,0,0l-0.001-12.5c-18.682,0.001-35.907,5.309-51.198,15.779
			c-16.441,11.259-29.311,26.266-38.256,44.606l-0.077,0.158l-0.075,0.158L15.058,349c-5.207,10.497-8.158,20.629-8.777,30.133
			c-1.943,21.275,4.506,40.678,18.666,56.139c13.75,15.027,31.05,23.684,51.413,25.724l0.173,0.017l0.173,0.015
			c2.707,0.233,5.406,0.351,8.023,0.351c25.812,0,47.122-11.25,61.661-32.542c2.733-3.78,6.889-10.95,18.319-37.693l91.324,7.957
			c7.076,30.002,9.571,36.804,11.339,40.627c5.969,12.979,14.624,23.35,25.703,30.781c10.762,7.218,23.641,11.509,38.28,12.753
			l0.074,0.006l0.074,0.006c2.19,0.173,4.394,0.261,6.55,0.261c17.148,0,32.834-5.359,46.623-15.928
			c3.088-2.369,5.93-4.938,8.531-7.684c5.83,1.869,12.019,3.125,18.569,3.735l0.032,0.003l0.032,0.003
			c2.838,0.257,5.677,0.387,8.438,0.387c18.728,0,35.387-5.799,49.514-17.236c16.507-13.363,25.821-32.784,26.956-56.19
			c0.261-3.115,0.508-6.159,0.74-9.141l45.293,65.633c13.368,19.505,33.272,30.901,57.567,32.961
			c2.582,0.236,5.169,0.356,7.693,0.356c18.992,0,36.488-6.854,50.597-19.822c15.661-14.404,24.403-32.09,25.993-52.574
			c0.644-7.136,0.116-14.172-1.534-21.081c3.269,4.764,6.729,9.434,10.405,13.995c33.841,42.206,79.31,68.041,135.141,76.786
			c11.876,1.968,24.793,2.965,38.395,2.965c29.983,0,56.18-4.56,77.864-13.552l0.095-0.039l0.095-0.04
			c11.294-4.793,20.331-10.461,27.566-16.577c9.786,5.765,20.729,9.294,32.749,10.498l0.173,0.017l0.173,0.015
			c2.707,0.233,5.406,0.351,8.023,0.351c25.81,0,47.12-11.25,61.659-32.539c2.734-3.78,6.888-10.944,18.321-37.695l91.324,7.957
			c7.077,30.008,9.571,36.804,11.339,40.627c5.969,12.979,14.624,23.35,25.703,30.781c10.762,7.218,23.641,11.509,38.28,12.753
			l0.074,0.006l0.074,0.006c2.19,0.173,4.394,0.261,6.55,0.261c17.147,0,32.834-5.359,46.623-15.928
			c0.209-0.161,0.405-0.333,0.613-0.495c1.364,1.347,2.778,2.645,4.26,3.873c13.298,11.016,30.642,16.601,51.549,16.601
			c5.433,0,10.599-0.509,15.368-1.515l90.565-15.796l0.035-0.006l0.035-0.006c50.105-8.886,91.349-29.389,122.812-61.014
			c2.979,6.347,6.895,12.288,11.766,17.782c11.999,13.542,27.492,22.192,46.042,25.704l133.864,25.926l0.149,0.029l0.149,0.027
			c5.344,0.968,10.582,1.458,15.571,1.458c20.879,0,39.328-7.825,53.352-22.628c13.662-14.438,20.879-32.644,20.879-52.661
			c0-17.316-5.354-32.925-15.913-46.392c-10.88-13.86-26.244-22.716-45.679-26.335l-58.614-11.573l0.726-3.822l47.826,9.426
			l0.162,0.032l0.163,0.03c5.313,0.974,10.571,1.468,15.627,1.468c20.625,0,39.094-7.565,53.408-21.878
			c14.315-14.315,21.88-32.784,21.88-53.411c0-17.544-5.658-33.31-16.818-46.86c-11.097-13.473-26.582-22.331-46.025-26.329
			l-0.083-0.017l-0.083-0.016l-47.637-9.457l0.142-0.743L1844.005,179.557z M1416.811,172.246l0.144-0.026
			c6.278-1.138,12.08-1.715,17.243-1.715c23.29,0,51.409,7.709,62.208,67.822l0.011,0.063l0.012,0.063
			c1.48,8.002,2.23,15.734,2.23,22.981c0,37.194-14.853,55.632-49.664,61.651l-15.151,2.626l-26.768-151.817l9.59-1.623
			L1416.811,172.246z M542.726,174.856l-0.022,0.228l-0.018,0.228c-0.386,4.924-1.443,6.707-1.65,7.013
			c-0.303,0.161-1.943,0.915-6.141,0.915c-1.154,0-2.409-0.059-3.729-0.176l-16.415-1.473l1.474-16.888l16.331,1.465
			c6.909,0.61,9.395,2.128,9.887,2.481C542.604,169.091,543.112,170.868,542.726,174.856z M623.115,299.565
			c8.094-3.703,15.668-8.06,22.735-13.017c2.663,22.484,8.302,43.693,16.866,63.532L623.115,299.565z"/>
		<g>
			<path fill="#D80500" d="M333.472,458.354c-20.827-1.77-35.293-11.472-43.407-29.115c-2.118-4.581-6.708-22.407-13.763-53.465
				l-127.576-11.116c-12.001,28.94-19.586,45.525-22.763,49.76c-10.943,16.237-26.649,23.465-47.112,21.703
				c-14.119-1.414-25.939-7.319-35.467-17.733c-9.529-10.404-13.581-22.845-12.174-37.319c0.356-6.352,2.472-13.407,6.352-21.175
				L168.312,81.98c7.055-14.465,17.023-26.112,29.909-34.937c12.878-8.817,27.436-12.522,43.672-11.117
				c33.168,2.83,54.525,22.233,64.053,58.23l78.344,295.912c2.465,9.527,3.524,17.649,3.176,24.35
				c-1.414,14.119-7.411,25.227-17.997,33.349C358.882,455.881,346.879,459.412,333.472,458.354z M228.659,167.736
				c-7.411,22.233-20.645,55.765-39.702,100.579l64.053,5.293L228.659,167.736z"/>
			<path fill="#FF8B00" d="M474.972,304.841c1.06,18.353,0,46.41-3.175,84.167c-0.712,16.593-6.617,29.38-17.734,38.379
				c-11.116,9-24.441,12.787-39.966,11.381c-15.177-1.414-27.353-7.493-36.526-18.262c-9.18-10.762-12.878-24.26-11.116-40.497
				l25.939-296.439c1.405-16.583,7.319-29.38,17.733-38.379c10.404-8.998,23.903-12.787,40.495-11.381l92.638,7.94
				c41.993,3.888,74.458,16.063,97.403,36.526c24.35,21.887,36.526,52.233,36.526,91.05c0,5.648-0.182,11.472-0.531,17.468
				c-2.472,27.526-12.886,50.115-31.231,67.759c-16.593,16.235-37.94,26.997-64.052,32.29l67.228,85.756
				c8.47,10.943,12.176,22.06,11.116,33.349c-1.058,14.119-7.062,26.203-17.997,36.261c-10.943,10.058-24.003,14.376-39.173,12.969
				c-16.939-1.414-30-8.825-39.173-22.233L474.972,304.841z M534.791,141.268l-41.291-3.705l-5.823,66.699l41.291,3.705
				c23.994,2.118,36.872-8.113,38.642-30.702C569.727,155.387,558.785,143.386,534.791,141.268z"/>
			<path fill="#FFF301" d="M832.63,453.061c-49.76-7.768-89.644-30.348-119.635-67.759c-29.297-36.343-43.938-79.577-43.938-129.692
				c0-12.705,1.06-25.41,3.176-38.114c8.115-52.58,29.909-95.367,65.376-128.368c35.467-32.995,77.898-49.495,127.311-49.495
				c10.587,0,21.52,0.885,32.82,2.646c26.112,4.236,50.289,13.061,72.521,26.468c28.23,16.941,42.349,36.179,42.349,57.701
				c0,13.061-4.499,24.441-13.499,34.143c-9,9.711-20.033,14.558-33.085,14.558c-9.18,0-23.118-5.468-41.818-16.41
				c-13.416-7.759-27.709-12.705-42.878-14.823c-4.592-0.702-9.355-1.058-14.294-1.058c-22.943,0-42.174,8.469-57.699,25.408
				c-15.534,16.941-25.41,39.528-29.644,67.759c-1.414,8.122-2.118,16.062-2.118,23.821c0,24.351,5.997,44.648,17.999,60.877
				c12.703,17.295,30.346,27.709,52.936,31.231c5.293,0.712,10.404,1.058,15.35,1.058c9.529,0,21.084-1.761,34.674-5.293
				c13.581-3.524,23.2-5.294,28.849-5.294c14.823,0,27.081,5.915,36.792,17.733c9.702,11.829,13.316,24.798,10.851,38.908
				c-3.176,20.115-16.41,35.112-39.702,44.996c-18.709,7.759-41.472,11.645-68.288,11.645
				C854.681,455.706,843.216,454.822,832.63,453.061z"/>
			<path fill="#37AE00" d="M1262.519,458.354c-20.827-1.77-35.293-11.472-43.407-29.115c-2.118-4.581-6.708-22.407-13.763-53.465
				l-127.576-11.116c-12.001,28.94-19.586,45.525-22.763,49.76c-10.943,16.237-26.649,23.465-47.112,21.703
				c-14.119-1.414-25.939-7.319-35.467-17.733c-9.529-10.404-13.581-22.845-12.174-37.319c0.356-6.352,2.472-13.407,6.352-21.175
				l130.75-277.913c7.055-14.465,17.023-26.112,29.909-34.937c12.878-8.817,27.436-12.522,43.672-11.117
				c33.168,2.83,54.525,22.233,64.053,58.23l78.344,295.912c2.465,9.527,3.524,17.649,3.176,24.35
				c-1.414,14.119-7.411,25.227-17.997,33.349C1287.928,455.881,1275.926,459.412,1262.519,458.354z M1157.706,167.736
				c-7.411,22.233-20.645,55.765-39.702,100.579l64.053,5.293L1157.706,167.736z"/>
			<path fill="#019FF1" d="M1471.783,445.649l-91.05,15.881c-3.176,0.704-6.708,1.058-10.587,1.058
				c-30,0-47.468-14.475-52.407-43.407l-51.878-292.205c-0.347-3.523-0.529-7.055-0.529-10.587c0-13.053,4.061-24.351,12.176-33.879
				c8.113-9.529,18.875-15.525,32.291-17.999l86.814-15.352c15.169-2.465,29.991-3.705,44.465-3.705
				c49.76,0,91.132,15.352,124.135,46.054c32.994,30.704,54.259,73.051,63.787,127.047c2.465,14.475,3.705,28.767,3.705,42.878
				c0,47.642-14.383,88.055-43.143,121.222C1560.798,415.831,1521.543,436.824,1471.783,445.649z M1412.495,147.621l-34.409,5.823
				l35.467,201.156l39.702-6.882c46.932-8.115,70.404-36.874,70.404-86.285c0-8.817-0.885-17.999-2.647-27.528
				c-10.587-58.932-39.527-88.402-86.814-88.402C1427.49,145.504,1420.253,146.214,1412.495,147.621z"/>
			<path fill="#0129F1" d="M1795.387,454.119l-133.928-25.939c-13.059-2.465-23.737-8.379-32.025-17.733
				c-8.288-9.348-12.44-20.555-12.44-33.614c0-3.524,0.529-7.23,1.587-11.117l55.583-285.852
				c6.352-32.464,23.64-48.701,51.878-48.701c4.234,0,8.469,0.356,12.705,1.058l128.634,24.881
				c13.763,2.828,24.167,8.735,31.231,17.733c7.055,9,10.587,19.322,10.587,30.968c0,13.763-4.764,25.591-14.292,35.466
				c-9.529,9.884-21.175,14.823-34.938,14.823c-3.886,0-7.593-0.348-11.116-1.06l-78.875-15.35l-9.529,49.76l71.993,14.292
				c13.763,2.83,24.35,8.735,31.762,17.734c7.411,8.998,11.116,19.32,11.116,30.967c0,14.119-4.855,26.03-14.557,35.732
				c-9.711,9.71-21.622,14.557-35.732,14.557c-3.532,0-7.237-0.347-11.117-1.058l-72.522-14.294l-10.058,52.936l83.11,16.41
				c13.407,2.474,23.638,8.206,30.702,17.205c7.055,8.998,10.587,19.32,10.587,30.967c0,13.763-4.682,25.591-14.028,35.467
				c-9.355,9.875-21.092,14.821-35.203,14.821C1802.971,455.177,1799.265,454.822,1795.387,454.119z"/>
		</g>
		<g>
			<defs>
				<path id="SVGID_1_" d="M1262.519,458.354c-20.827-1.77-35.293-11.472-43.407-29.115c-2.118-4.581-6.708-22.407-13.763-53.465
					l-127.576-11.116c-12.001,28.94-19.586,45.525-22.763,49.76c-10.943,16.237-26.649,23.465-47.112,21.703
					c-14.119-1.414-25.939-7.319-35.467-17.733c-9.529-10.404-13.581-22.845-12.174-37.319c0.356-6.352,2.472-13.407,6.352-21.175
					l130.75-277.913c7.055-14.465,17.023-26.112,29.909-34.937c12.878-8.817,27.436-12.522,43.672-11.117
					c33.168,2.83,54.525,22.233,64.053,58.23l78.344,295.912c2.465,9.527,3.524,17.649,3.176,24.35
					c-1.414,14.119-7.411,25.227-17.997,33.349C1287.928,455.881,1275.926,459.412,1262.519,458.354z M1157.706,167.736
					c-7.411,22.233-20.645,55.765-39.702,100.579l64.053,5.293L1157.706,167.736z"/>
			</defs>
			<clipPath id="SVGID_2_">
				<use xlink:href="#SVGID_1_"  overflow="visible"/>
			</clipPath>
			<g clip-path="url(#SVGID_2_)">
				
					<path fill="none" stroke="#1E7E00" stroke-width="30" stroke-linecap="round" stroke-linejoin="round" stroke-miterlimit="10" d="
					M1203.359,365.151l-132.667-9.333c0,0-13.333,73.467-61.667,73.467c-50.667,0-79-53.133-79-53.133"/>
				
					<path fill="none" stroke="#1E7E00" stroke-width="30" stroke-linecap="round" stroke-linejoin="round" stroke-miterlimit="10" d="
					M1193.359,420.818c0,0,28,31.667,61.333,31.667c27.667,0,61.972-15.572,53.667-48c-7.823-30.543-68.335-272.917-80.333-322
					c-15.532-63.539-50.333-64-50.333-64"/>
				
					<line fill="none" stroke="#1E7E00" stroke-width="25" stroke-linecap="round" stroke-linejoin="round" stroke-miterlimit="10" x1="1102.359" y1="269.818" x2="1149.026" y2="155.818"/>
			</g>
			<g clip-path="url(#SVGID_2_)">
				<path fill="#37AE00" d="M1164.344,37.636c2.098,0,4.259,0.095,6.426,0.282c16.061,1.37,29.423,6.809,39.716,16.165
					c10.337,9.396,17.932,23.051,22.573,40.585l78.341,295.901c2.397,9.266,3.446,17.239,3.118,23.697
					c-1.358,13.453-7.152,24.19-17.219,31.914c-8.966,6.873-19.126,10.357-30.198,10.357c-1.449,0-2.938-0.06-4.413-0.176
					c-20.238-1.72-33.898-10.865-41.761-27.961c-2.053-4.44-6.638-22.295-13.628-53.069c-0.193-0.848-0.911-1.474-1.777-1.549
					l-127.576-11.116c-0.058-0.005-0.117-0.008-0.174-0.008c-0.802,0-1.535,0.482-1.847,1.234
					c-11.882,28.653-19.457,45.249-22.515,49.326c-0.02,0.027-0.04,0.054-0.059,0.082c-9.559,14.184-22.505,21.08-39.575,21.08
					c-1.847,0-3.768-0.085-5.68-0.249c-13.551-1.357-25.055-7.108-34.192-17.094c-9.079-9.914-13.002-21.95-11.659-35.775
					c0.003-0.027,0.005-0.054,0.006-0.082c0.339-6.047,2.406-12.909,6.165-20.436l130.738-277.887
					c6.87-14.086,16.708-25.58,29.241-34.163c10.716-7.337,22.808-11.057,35.944-11.057H1164.344 M1182.057,275.608
					c0.578,0,1.13-0.25,1.512-0.691c0.418-0.483,0.58-1.135,0.437-1.757l-24.351-105.871c-0.201-0.873-0.958-1.507-1.854-1.549
					c-0.032-0.002-0.064-0.002-0.096-0.002c-0.857,0-1.623,0.548-1.897,1.368c-7.368,22.105-20.706,55.894-39.645,100.429
					c-0.251,0.591-0.203,1.267,0.128,1.816c0.332,0.55,0.907,0.907,1.547,0.96l64.053,5.293
					C1181.947,275.605,1182.002,275.608,1182.057,275.608 M1164.34,35.636c-13.605,0-25.965,3.803-37.072,11.407
					c-12.886,8.825-22.854,20.471-29.909,34.937l-130.75,277.913c-3.88,7.768-5.997,14.823-6.352,21.175
					c-1.406,14.475,2.646,26.915,12.174,37.319c9.529,10.414,21.349,16.319,35.467,17.733c2.006,0.173,3.964,0.259,5.879,0.259
					c17.617,0,31.364-7.317,41.234-21.962c3.176-4.234,10.762-20.819,22.763-49.76l127.576,11.116
					c7.055,31.058,11.645,48.884,13.763,53.465c8.115,17.643,22.58,27.345,43.407,29.115c1.547,0.122,3.073,0.183,4.582,0.183
					c11.574,0,22.049-3.591,31.414-10.77c10.587-8.122,16.583-19.231,17.998-33.349c0.348-6.701-0.712-14.823-3.176-24.35
					l-78.344-295.912c-9.529-35.997-30.885-55.4-64.053-58.23C1168.707,35.733,1166.509,35.636,1164.34,35.636L1164.34,35.636z
					 M1182.057,273.608l-64.053-5.293c19.057-44.814,32.291-78.345,39.702-100.579L1182.057,273.608L1182.057,273.608z"/>
			</g>
		</g>
		<g>
			<defs>
				<path id="SVGID_3_" d="M474.972,304.841c1.06,18.353,0,46.41-3.175,84.167c-0.712,16.593-6.617,29.38-17.734,38.379
					c-11.116,9-24.441,12.787-39.966,11.381c-15.177-1.414-27.353-7.493-36.526-18.262c-9.18-10.762-12.878-24.26-11.116-40.497
					l25.939-296.439c1.405-16.583,7.319-29.38,17.733-38.379c10.404-8.998,23.903-12.787,40.495-11.381l92.638,7.94
					c41.993,3.888,74.458,16.063,97.403,36.526c24.35,21.887,36.526,52.233,36.526,91.05c0,5.648-0.182,11.472-0.531,17.468
					c-2.472,27.526-12.886,50.115-31.231,67.759c-16.593,16.235-37.94,26.997-64.052,32.29l67.228,85.756
					c8.47,10.943,12.176,22.06,11.116,33.349c-1.058,14.119-7.062,26.203-17.997,36.261c-10.943,10.058-24.003,14.376-39.173,12.969
					c-16.939-1.414-30-8.825-39.173-22.233L474.972,304.841z M534.791,141.268l-41.291-3.705l-5.823,66.699l41.291,3.705
					c23.994,2.118,36.872-8.113,38.642-30.702C569.727,155.387,558.785,143.386,534.791,141.268z"/>
			</defs>
			<clipPath id="SVGID_4_">
				<use xlink:href="#SVGID_3_"  overflow="visible"/>
			</clipPath>
			<g clip-path="url(#SVGID_4_)">
				
					<path fill="none" stroke="#C26000" stroke-width="25" stroke-linecap="round" stroke-linejoin="round" stroke-miterlimit="10" d="
					M479.191,194.718l6.533-64.9c0,0,23.758,1.804,42.403,2.83c21.264,1.17,26.264,20.503,24.597,39.503"/>
				
					<path fill="none" stroke="#C26000" stroke-width="25" stroke-linecap="round" stroke-linejoin="round" stroke-miterlimit="10" d="
					M631.724,37.151c0,0,39.333,30.667,39.333,137.333c0,89.667-95.667,106.667-95.667,106.667"/>
				
					<path fill="none" stroke="#C26000" stroke-width="25" stroke-linecap="round" stroke-linejoin="round" stroke-miterlimit="10" d="
					M468.057,299.818c0,0-3.354,61.982-4.333,83c-1.258,26.989-17.934,47-48.333,47c-47,0-68-76-68-76"/>
				
					<path fill="none" stroke="#C26000" stroke-width="25" stroke-linecap="round" stroke-linejoin="round" stroke-miterlimit="10" d="
					M518.391,411.151c0,0,65.333,56.333,106.667,32c43.753-25.758,33.667-95.333,33.667-95.333"/>
			</g>
			<g clip-path="url(#SVGID_4_)">
				<path fill="#FF8B00" d="M444.056,35.524c2.066,0,4.218,0.094,6.396,0.278l92.624,7.939c41.358,3.829,73.743,15.95,96.25,36.022
					c11.889,10.686,20.931,23.617,26.875,38.433c5.964,14.866,8.988,32.068,8.988,51.129c0,5.479-0.177,11.306-0.525,17.321
					c-2.421,26.89-12.724,49.251-30.635,66.477c-16.234,15.884-37.447,26.569-63.05,31.759c-0.68,0.138-1.24,0.618-1.479,1.269
					c-0.24,0.651-0.125,1.379,0.303,1.925l67.22,85.746c8.11,10.477,11.712,21.223,10.703,31.976
					c-1.013,13.522-6.853,25.277-17.356,34.938c-9.169,8.428-20.045,12.701-32.325,12.701c-1.73,0-3.516-0.084-5.328-0.252
					c-16.235-1.355-28.915-8.545-37.693-21.376l-88.403-128.103c-0.381-0.552-1.002-0.864-1.646-0.864
					c-0.217,0-0.436,0.035-0.649,0.109c-0.848,0.291-1.399,1.112-1.347,2.007c1.049,18.163-0.018,46.386-3.171,83.884
					c-0.002,0.027-0.004,0.055-0.005,0.082c-0.683,15.916-6.4,28.334-16.995,36.91c-9.196,7.445-20.139,11.221-32.524,11.221
					c-1.951,0-3.971-0.093-5.998-0.277c-14.577-1.358-26.417-7.269-35.19-17.569c-8.759-10.268-12.342-23.384-10.645-39.025
					l25.939-296.445c1.353-15.967,7.088-28.428,17.048-37.035C420.012,39.285,430.987,35.524,444.056,35.524 M534.895,210.239
					c21.325,0,33.002-11.042,34.705-32.782c1.059-10.939-1.074-19.7-6.339-26.039c-5.736-6.906-15.256-10.992-28.292-12.142
					l-41.291-3.705c-0.06-0.005-0.119-0.008-0.179-0.008c-0.468,0-0.923,0.164-1.284,0.467c-0.407,0.341-0.662,0.83-0.708,1.359
					l-5.823,66.699c-0.096,1.098,0.715,2.067,1.814,2.166l41.294,3.706C530.898,210.145,532.951,210.239,534.895,210.239
					 M444.056,33.524c-13.622,0-24.933,3.886-33.929,11.666c-10.414,9-16.328,21.796-17.733,38.379l-25.939,296.439
					c-1.762,16.237,1.936,29.735,11.116,40.497c9.173,10.769,21.349,16.848,36.526,18.262c2.102,0.19,4.162,0.286,6.184,0.286
					c12.908,0,24.172-3.885,33.783-11.666c11.118-8.999,17.023-21.786,17.734-38.379c3.175-37.757,4.234-65.814,3.175-84.167
					l88.403,128.103c9.173,13.409,22.233,20.819,39.173,22.233c1.864,0.173,3.694,0.259,5.494,0.259
					c12.851,0,24.081-4.406,33.679-13.228c10.935-10.058,16.939-22.142,17.997-36.261c1.06-11.289-2.646-22.407-11.116-33.349
					l-67.228-85.756c26.112-5.293,47.459-16.054,64.052-32.29c18.346-17.643,28.759-40.232,31.231-67.759
					c0.348-5.997,0.531-11.82,0.531-17.468c0-38.817-12.176-69.163-36.526-91.05c-22.945-20.462-55.41-32.638-97.403-36.526
					l-92.638-7.94C448.376,33.619,446.188,33.524,444.056,33.524L444.056,33.524z M534.895,208.239
					c-1.893,0-3.871-0.091-5.927-0.272l-41.291-3.705l5.823-66.699l41.291,3.705c23.994,2.118,34.937,14.119,32.819,35.996
					C565.991,197.918,555.091,208.239,534.895,208.239L534.895,208.239z"/>
			</g>
		</g>
		<g>
			<defs>
				<path id="SVGID_5_" d="M832.63,453.061c-49.76-7.768-89.644-30.348-119.635-67.759c-29.297-36.343-43.938-79.577-43.938-129.692
					c0-12.705,1.06-25.41,3.176-38.114c8.115-52.58,29.909-95.367,65.376-128.368c35.467-32.995,77.898-49.495,127.311-49.495
					c10.587,0,21.52,0.885,32.82,2.646c26.112,4.236,50.289,13.061,72.521,26.468c28.23,16.941,42.349,36.179,42.349,57.701
					c0,13.061-4.499,24.441-13.499,34.143c-9,9.711-20.033,14.558-33.085,14.558c-9.18,0-23.118-5.468-41.818-16.41
					c-13.416-7.759-27.709-12.705-42.878-14.823c-4.592-0.702-9.355-1.058-14.294-1.058c-22.943,0-42.174,8.469-57.699,25.408
					c-15.534,16.941-25.41,39.528-29.644,67.759c-1.414,8.122-2.118,16.062-2.118,23.821c0,24.351,5.997,44.648,17.999,60.877
					c12.703,17.295,30.346,27.709,52.936,31.231c5.293,0.712,10.404,1.058,15.35,1.058c9.529,0,21.084-1.761,34.674-5.293
					c13.581-3.524,23.2-5.294,28.849-5.294c14.823,0,27.081,5.915,36.792,17.733c9.702,11.829,13.316,24.798,10.851,38.908
					c-3.176,20.115-16.41,35.112-39.702,44.996c-18.709,7.759-41.472,11.645-68.288,11.645
					C854.681,455.706,843.216,454.822,832.63,453.061z"/>
			</defs>
			<clipPath id="SVGID_6_">
				<use xlink:href="#SVGID_5_"  overflow="visible"/>
			</clipPath>
			<g clip-path="url(#SVGID_6_)">
				
					<path fill="none" stroke="#D4AF00" stroke-width="25" stroke-linecap="round" stroke-linejoin="round" stroke-miterlimit="10" d="
					M828.724,330.818c0,0-74-13.333-57.333-108.333c16.055-91.516,99-98.667,146.333-72.667c32.27,17.726,68,25.333,83.667-12
					c13.837-32.974-12-92.333-12-92.333"/>
				
					<path fill="none" stroke="#D4AF00" stroke-width="25" stroke-linecap="round" stroke-linejoin="round" stroke-miterlimit="10" d="
					M931.057,311.818c0,0,35,14.667,35,69.333c0,42.667-42.667,67-108,67c-128,0-203.667-125-203.667-125"/>
			</g>
			<g clip-path="url(#SVGID_6_)">
				<path fill="#FFF301" d="M864.921,41.633c10.408,0,21.347,0.882,32.5,2.62c25.736,4.175,49.896,12.992,71.812,26.209
					c27.456,16.477,41.378,35.313,41.378,55.986c0,12.479-4.362,23.509-12.965,32.784c-8.558,9.235-19.196,13.918-31.618,13.918
					c-8.781,0-22.51-5.429-40.817-16.141c-13.59-7.859-28.26-12.93-43.577-15.068c-4.69-0.717-9.601-1.081-14.596-1.081
					c-23.418,0-43.327,8.767-59.173,26.056c-15.728,17.152-25.872,40.305-30.14,68.767c-1.425,8.186-2.148,16.315-2.148,24.164
					c0,24.683,6.188,45.565,18.387,62.061c12.971,17.659,31.22,28.434,54.281,32.03c5.311,0.714,10.565,1.076,15.617,1.076
					c9.665,0,21.5-1.802,35.176-5.357c13.373-3.47,22.91-5.23,28.346-5.23c14.316,0,25.845,5.562,35.245,17.001
					c9.268,11.3,12.777,23.848,10.422,37.328c-1.52,9.629-5.501,18.149-11.832,25.323c-6.386,7.238-15.361,13.342-26.661,18.137
					c-18.389,7.626-41.106,11.492-67.521,11.492c-12.166,0-23.632-0.881-34.099-2.622c-24.528-3.829-46.919-11.408-66.554-22.528
					c-19.627-11.115-37.065-26.089-51.832-44.51c-14.431-17.901-25.405-37.775-32.618-59.068
					c-7.217-21.306-10.877-44.645-10.877-69.369c0-12.529,1.06-25.242,3.153-37.809c4.006-25.956,11.487-49.818,22.236-70.923
					c10.738-21.084,25.046-40.021,42.525-56.285c17.466-16.248,36.909-28.603,57.789-36.721
					C817.647,45.75,840.58,41.633,864.921,41.633 M864.921,39.633c-49.413,0-91.844,16.5-127.311,49.495
					c-35.467,33.001-57.261,75.788-65.376,128.368c-2.116,12.705-3.176,25.41-3.176,38.114c0,50.115,14.64,93.349,43.938,129.692
					c29.991,37.41,69.875,59.991,119.635,67.758c10.587,1.761,22.051,2.646,34.408,2.646c26.816,0,49.579-3.886,68.288-11.645
					c23.292-9.884,36.526-24.881,39.702-44.996c2.465-14.11-1.149-27.079-10.851-38.908c-9.711-11.818-21.969-17.733-36.792-17.733
					c-5.648,0-15.268,1.77-28.849,5.294c-13.59,3.532-25.145,5.293-34.674,5.293c-4.946,0-10.058-0.347-15.35-1.058
					c-22.589-3.523-40.232-13.936-52.936-31.231c-12.002-16.229-17.999-36.526-17.999-60.877c0-7.759,0.704-15.699,2.118-23.821
					c4.234-28.23,14.11-50.818,29.644-67.759c15.525-16.939,34.756-25.408,57.699-25.408c4.938,0,9.702,0.356,14.294,1.058
					c15.169,2.118,29.462,7.064,42.878,14.823c18.7,10.943,32.638,16.41,41.818,16.41c13.051,0,24.085-4.847,33.085-14.558
					c8.999-9.702,13.498-21.082,13.498-34.143c0-21.522-14.119-40.76-42.349-57.701c-22.232-13.407-46.409-22.232-72.521-26.468
					C886.441,40.518,875.508,39.633,864.921,39.633L864.921,39.633z"/>
			</g>
		</g>
		<g>
			<defs>
				<path id="SVGID_7_" d="M1471.783,445.649l-91.05,15.881c-3.176,0.704-6.708,1.058-10.587,1.058
					c-30,0-47.468-14.475-52.407-43.407l-51.878-292.205c-0.347-3.523-0.529-7.055-0.529-10.587
					c0-13.053,4.061-24.351,12.176-33.879c8.113-9.529,18.875-15.525,32.291-17.999l86.814-15.352
					c15.169-2.465,29.991-3.705,44.465-3.705c49.76,0,91.132,15.352,124.135,46.054c32.994,30.704,54.259,73.051,63.787,127.047
					c2.465,14.475,3.705,28.767,3.705,42.878c0,47.642-14.383,88.055-43.143,121.222
					C1560.798,415.831,1521.543,436.824,1471.783,445.649z M1412.495,147.621l-34.409,5.823l35.467,201.156l39.702-6.882
					c46.932-8.115,70.404-36.874,70.404-86.285c0-8.817-0.885-17.999-2.647-27.528c-10.587-58.932-39.527-88.402-86.814-88.402
					C1427.49,145.504,1420.253,146.214,1412.495,147.621z"/>
			</defs>
			<clipPath id="SVGID_8_">
				<use xlink:href="#SVGID_7_"  overflow="visible"/>
			</clipPath>
			<g clip-path="url(#SVGID_8_)">
				
					<path fill="none" stroke="#02679B" stroke-width="25" stroke-linecap="round" stroke-linejoin="round" stroke-miterlimit="10" d="
					M1404.057,355.484l-34.333-210.667c0,0,0,0,46-7c41.245-6.276,77.951,28.31,88.333,79.333"/>
				
					<path fill="none" stroke="#02679B" stroke-width="25" stroke-linecap="round" stroke-linejoin="round" stroke-miterlimit="10" d="
					M1290.391,415.151c0,0,38.01,45.052,93.667,34c47-9.333,81.967-16.822,122.333-25.333c55.333-11.667,127.92-79.353,119.333-189
					c-8.667-110.667-82.667-206.667-82.667-206.667"/>
			</g>
			<g clip-path="url(#SVGID_8_)">
				<path fill="#019FF1" d="M1441.08,47.455c24.524,0,47.287,3.832,67.656,11.389c20.342,7.547,38.886,19.03,55.117,34.129
					c16.246,15.118,29.794,33.361,40.268,54.222c10.495,20.903,18.204,45.029,22.91,71.696c2.44,14.329,3.677,28.642,3.677,42.542
					c0,23.48-3.59,45.473-10.671,65.368c-7.073,19.875-17.834,38.226-31.983,54.543c-14.155,16.325-31.129,29.842-50.45,40.175
					c-19.35,10.349-41.613,17.804-66.163,22.158l-91.05,15.881c-0.03,0.005-0.06,0.011-0.089,0.018
					c-3.026,0.671-6.443,1.011-10.154,1.011c-14.451,0-25.999-3.497-34.326-10.394c-8.314-6.887-13.735-17.435-16.112-31.363
					l-51.864-292.128c-0.34-3.478-0.512-6.947-0.512-10.314c0-12.506,3.936-23.468,11.699-32.582
					c7.767-9.122,18.241-14.952,31.117-17.326l86.787-15.347C1411.962,48.692,1426.814,47.455,1441.08,47.455 M1413.551,356.6
					c0.114,0,0.229-0.01,0.344-0.03l39.701-6.881c47.818-8.268,72.063-37.961,72.063-88.256c0-8.89-0.902-18.274-2.679-27.881
					c-10.734-59.751-40.605-90.048-88.783-90.048c-6.774,0-14.196,0.723-22.036,2.145l-34.409,5.823
					c-0.525,0.089-0.994,0.384-1.301,0.819c-0.307,0.435-0.428,0.975-0.335,1.5l35.467,201.156
					C1411.755,355.917,1412.599,356.6,1413.551,356.6 M1441.08,45.455c-14.475,0-29.296,1.241-44.465,3.705L1309.8,64.512
					c-13.417,2.474-24.178,8.47-32.291,17.999c-8.115,9.527-12.176,20.826-12.176,33.878c0,3.532,0.183,7.064,0.529,10.587
					l51.878,292.205c4.938,28.932,22.407,43.407,52.407,43.407c3.879,0,7.411-0.354,10.587-1.058l91.05-15.881
					c49.76-8.825,89.014-29.817,117.781-62.993c28.759-33.167,43.143-73.58,43.143-121.222c0-14.111-1.241-28.403-3.705-42.878
					c-9.529-53.996-30.793-96.343-63.787-127.047C1532.212,60.806,1490.839,45.455,1441.08,45.455L1441.08,45.455z M1413.553,354.6
					l-35.467-201.156l34.409-5.823c7.757-1.406,14.995-2.116,21.703-2.116c47.287,0,76.228,29.469,86.814,88.402
					c1.762,9.529,2.647,18.711,2.647,27.528c0,49.411-23.473,78.171-70.404,86.285L1413.553,354.6L1413.553,354.6z"/>
			</g>
		</g>
		<g>
			<defs>
				<path id="SVGID_9_" d="M1795.387,454.119l-133.928-25.939c-13.059-2.465-23.737-8.379-32.025-17.733
					c-8.288-9.348-12.44-20.555-12.44-33.614c0-3.524,0.529-7.23,1.587-11.117l55.583-285.852
					c6.352-32.464,23.64-48.701,51.878-48.701c4.234,0,8.469,0.356,12.705,1.058l128.634,24.881
					c13.763,2.828,24.167,8.735,31.231,17.733c7.055,9,10.587,19.322,10.587,30.968c0,13.763-4.764,25.591-14.292,35.466
					c-9.529,9.884-21.175,14.823-34.938,14.823c-3.886,0-7.593-0.348-11.116-1.06l-78.875-15.35l-9.529,49.76l71.993,14.292
					c13.763,2.83,24.35,8.735,31.762,17.734c7.411,8.998,11.116,19.32,11.116,30.967c0,14.119-4.855,26.03-14.557,35.732
					c-9.711,9.71-21.622,14.557-35.732,14.557c-3.532,0-7.237-0.347-11.117-1.058l-72.522-14.294l-10.058,52.936l83.11,16.41
					c13.407,2.474,23.638,8.206,30.702,17.205c7.055,8.998,10.587,19.32,10.587,30.967c0,13.763-4.682,25.591-14.028,35.467
					c-9.355,9.875-21.092,14.821-35.203,14.821C1802.971,455.177,1799.265,454.822,1795.387,454.119z"/>
			</defs>
			<clipPath id="SVGID_10_">
				<use xlink:href="#SVGID_9_"  overflow="visible"/>
			</clipPath>
			<g clip-path="url(#SVGID_10_)">
				
					<path fill="none" stroke="#001685" stroke-width="25" stroke-linecap="round" stroke-linejoin="round" stroke-miterlimit="10" d="
					M1598.724,365.484c0,0,14.541,44.148,61.566,53.506c126.691,25.212-3.079-0.611,126.434,25.161c57.78,11.498,78.333-37,62-87"/>
				
					<path fill="none" stroke="#001685" stroke-width="25" stroke-linecap="round" stroke-linejoin="round" stroke-miterlimit="10" d="
					M1720.391,341.484l16.455-63.685c0,0,0,0,84.645,16.252c46.84,8.993,58.567-46.233,39.567-97.9"/>
				
					<path fill="none" stroke="#001685" stroke-width="25" stroke-linecap="round" stroke-linejoin="round" stroke-miterlimit="10" d="
					M1751.271,187.054l13.455-57.685c0,0,0,0,79.645,13.252c47.049,7.828,72.567-44.233,53.567-95.9"/>
			</g>
			<g clip-path="url(#SVGID_10_)">
				<path fill="#0129F1" d="M1726.041,33.162c4.078,0,8.234,0.346,12.352,1.027l128.584,24.871
					c13.219,2.716,23.333,8.439,30.06,17.008c6.742,8.601,10.161,18.605,10.161,29.734c0,13.169-4.62,24.634-13.732,34.078
					c-9.09,9.43-20.361,14.211-33.498,14.211c-3.762,0-7.369-0.343-10.734-1.023l-78.875-15.35
					c-0.127-0.025-0.255-0.037-0.382-0.037c-0.396,0-0.787,0.118-1.12,0.343c-0.44,0.298-0.744,0.759-0.844,1.28l-9.529,49.76
					c-0.207,1.08,0.497,2.124,1.575,2.338l71.98,14.289c13.245,2.723,23.547,8.458,30.621,17.047
					c7.073,8.588,10.66,18.579,10.66,29.695c0,13.501-4.701,25.047-13.971,34.318c-9.272,9.271-20.818,13.971-34.318,13.971
					c-3.427,0-7.047-0.345-10.731-1.02l-72.522-14.294c-0.128-0.025-0.258-0.038-0.387-0.038c-0.396,0-0.787,0.118-1.12,0.343
					c-0.441,0.298-0.746,0.76-0.845,1.284l-10.058,52.936c-0.205,1.08,0.499,2.123,1.577,2.335l83.135,16.415
					c12.851,2.371,22.773,7.913,29.491,16.472c6.742,8.599,10.161,18.603,10.161,29.733c0,13.17-4.535,24.64-13.48,34.092
					c-8.924,9.42-20.28,14.197-33.751,14.197c-3.379,0-6.999-0.345-10.736-1.022l-133.938-25.941
					c-12.552-2.369-22.948-8.12-30.9-17.094c-7.921-8.934-11.937-19.796-11.937-32.287c0-3.33,0.51-6.894,1.517-10.592
					c0.013-0.047,0.024-0.095,0.033-0.144l55.582-285.85c3.079-15.738,8.845-27.665,17.138-35.451
					C1701.487,37.077,1712.514,33.162,1726.041,33.162 M1726.041,31.162c-28.238,0-45.525,16.237-51.877,48.701l-55.583,285.852
					c-1.058,3.888-1.587,7.593-1.587,11.117c0,13.059,4.152,24.266,12.44,33.614c8.288,9.354,18.966,15.268,32.025,17.733
					l133.928,25.939c3.879,0.702,7.584,1.058,11.116,1.058c14.111,0,25.848-4.946,35.203-14.821
					c9.346-9.877,14.028-21.704,14.028-35.467c0-11.647-3.532-21.969-10.587-30.967c-7.064-8.999-17.295-14.732-30.702-17.205
					l-83.11-16.41l10.058-52.936l72.522,14.294c3.88,0.712,7.585,1.058,11.117,1.058c14.11,0,26.021-4.847,35.732-14.557
					c9.702-9.702,14.557-21.613,14.557-35.732c0-11.647-3.705-21.969-11.116-30.967c-7.412-9-17.999-14.905-31.762-17.734
					l-71.993-14.292l9.529-49.76l78.875,15.35c3.523,0.712,7.23,1.06,11.116,1.06c13.763,0,25.41-4.938,34.938-14.823
					c9.529-9.875,14.292-21.703,14.292-35.466c0-11.647-3.532-21.969-10.587-30.968c-7.064-8.998-17.468-14.905-31.231-17.733
					l-128.634-24.881C1734.51,31.518,1730.275,31.162,1726.041,31.162L1726.041,31.162z"/>
			</g>
		</g>
		<g>
			<defs>
				<path id="SVGID_11_" d="M333.472,458.354c-20.827-1.77-35.293-11.472-43.407-29.115c-2.118-4.581-6.708-22.407-13.763-53.465
					l-127.576-11.116c-12.001,28.94-19.586,45.525-22.763,49.76c-10.943,16.237-26.649,23.465-47.112,21.703
					c-14.119-1.414-25.939-7.319-35.467-17.733c-9.529-10.404-13.581-22.845-12.174-37.319c0.356-6.352,2.472-13.407,6.352-21.175
					L168.312,81.98c7.055-14.465,17.023-26.112,29.909-34.937c12.878-8.817,27.436-12.522,43.672-11.117
					c33.168,2.83,54.525,22.233,64.053,58.23l78.344,295.912c2.465,9.527,3.524,17.649,3.176,24.35
					c-1.414,14.119-7.411,25.227-17.997,33.349C358.882,455.881,346.879,459.412,333.472,458.354z M228.659,167.736
					c-7.411,22.233-20.645,55.765-39.702,100.579l64.053,5.293L228.659,167.736z"/>
			</defs>
			<clipPath id="SVGID_12_">
				<use xlink:href="#SVGID_11_"  overflow="visible"/>
			</clipPath>
			<g clip-path="url(#SVGID_12_)">
				
					<path fill="none" stroke="#890300" stroke-width="30" stroke-linecap="round" stroke-linejoin="round" stroke-miterlimit="10" d="
					M276.724,367.151l-132.667-9.333c0,0-13.333,73.467-61.667,73.467c-50.667,0-79-53.133-79-53.133"/>
				
					<path fill="none" stroke="#890300" stroke-width="30" stroke-linecap="round" stroke-linejoin="round" stroke-miterlimit="10" d="
					M266.724,422.818c0,0,28,31.667,61.333,31.667c27.667,0,61.972-15.572,53.667-48c-7.823-30.543-68.335-272.917-80.333-322
					c-15.532-63.539-50.333-64-50.333-64"/>
				
					<line fill="none" stroke="#890300" stroke-width="25" stroke-linecap="round" stroke-linejoin="round" stroke-miterlimit="10" x1="175.724" y1="271.818" x2="222.391" y2="157.818"/>
			</g>
			<g clip-path="url(#SVGID_12_)">
				<path fill="#D80500" d="M235.297,37.636c2.098,0,4.259,0.095,6.426,0.282c16.061,1.37,29.423,6.809,39.716,16.165
					c10.337,9.396,17.932,23.051,22.574,40.585l78.341,295.901c2.397,9.266,3.446,17.239,3.118,23.697
					c-1.358,13.453-7.152,24.19-17.219,31.914c-8.966,6.873-19.126,10.357-30.198,10.357c-1.449,0-2.938-0.06-4.413-0.176
					c-20.238-1.72-33.898-10.865-41.761-27.961c-2.053-4.44-6.638-22.295-13.628-53.069c-0.193-0.848-0.911-1.474-1.777-1.549
					L148.9,362.665c-0.058-0.005-0.117-0.008-0.174-0.008c-0.802,0-1.535,0.482-1.847,1.234
					c-11.882,28.653-19.457,45.249-22.515,49.326c-0.02,0.027-0.04,0.054-0.059,0.082c-9.559,14.184-22.504,21.08-39.575,21.08
					c-1.847,0-3.768-0.085-5.68-0.249c-13.551-1.357-25.055-7.108-34.192-17.094c-9.079-9.914-13.002-21.95-11.658-35.775
					c0.003-0.027,0.005-0.054,0.006-0.082c0.339-6.047,2.406-12.909,6.165-20.436L170.11,82.857
					c6.87-14.086,16.708-25.58,29.241-34.163c10.716-7.337,22.809-11.057,35.945-11.057H235.297 M253.01,275.608
					c0.578,0,1.13-0.25,1.512-0.691c0.418-0.483,0.58-1.135,0.437-1.757l-24.351-105.871c-0.201-0.873-0.958-1.507-1.854-1.549
					c-0.032-0.002-0.064-0.002-0.096-0.002c-0.857,0-1.623,0.548-1.897,1.368c-7.368,22.105-20.706,55.894-39.645,100.429
					c-0.251,0.591-0.204,1.267,0.128,1.816c0.332,0.55,0.908,0.907,1.547,0.96l64.053,5.293
					C252.901,275.605,252.955,275.608,253.01,275.608 M235.293,35.636c-13.605,0-25.965,3.803-37.072,11.407
					c-12.886,8.825-22.854,20.471-29.909,34.937L37.562,359.893c-3.88,7.768-5.997,14.823-6.352,21.175
					c-1.406,14.475,2.646,26.915,12.174,37.319c9.529,10.414,21.349,16.319,35.467,17.733c2.006,0.173,3.964,0.259,5.879,0.259
					c17.616,0,31.364-7.317,41.234-21.962c3.176-4.234,10.762-20.819,22.763-49.76l127.576,11.116
					c7.055,31.058,11.645,48.884,13.763,53.465c8.115,17.643,22.58,27.345,43.407,29.115c1.547,0.122,3.073,0.183,4.582,0.183
					c11.574,0,22.049-3.591,31.414-10.77c10.587-8.122,16.583-19.231,17.998-33.349c0.348-6.701-0.712-14.823-3.176-24.35
					L305.946,94.156c-9.529-35.997-30.885-55.4-64.053-58.23C239.66,35.733,237.462,35.636,235.293,35.636L235.293,35.636z
					 M253.01,273.608l-64.053-5.293c19.057-44.814,32.291-78.345,39.702-100.579L253.01,273.608L253.01,273.608z"/>
			</g>
		</g>
		<g>
			<g>
				<path fill="#FFFFFF" d="M1732.021,54.724c-0.166,0.342-0.371,0.672-0.492,1.029c-0.983,2.917-3.115,4.565-6.165,4.86
					c-2.379,0.23-4.787,0.375-7.113,0.879c-5.268,1.141-9.118,4.146-10.998,9.308c-0.847,2.325-2.477,3.415-4.794,3.733
					c-3.506,0.481-6.686-0.36-9.417-2.584c-3.456-2.814-4.073-6.578-2.973-10.633c1.55-5.711,4.794-10.401,9.295-14.21
					c4.69-3.969,10.143-6.268,16.185-7.24c0.699-0.112,1.38-0.332,2.07-0.501c1.28,0,2.56,0,3.84,0
					c0.072,0.035,0.141,0.093,0.216,0.1c5.589,0.553,8.907,3.707,10.344,9.02C1732.021,50.564,1732.021,52.644,1732.021,54.724z"/>
				<path fill="#FFFFFF" d="M185.937,71.524c0.293-0.459,0.707-0.881,0.859-1.383c0.805-2.656,2.21-4.969,4.076-6.976
					c2.228-2.395,4.44-4.83,6.884-6.994c6.262-5.543,13.799-7.451,21.981-7.157c2.513,0.09,4.875,0.898,6.869,2.507
					c2.344,1.891,3.528,4.328,3.054,7.372c-0.465,2.988-2.401,4.823-5.125,5.79c-1.335,0.474-2.79,0.671-4.209,0.84
					c-7.983,0.948-14.011,4.994-18.461,11.56c-0.671,0.99-1.246,2.045-1.884,3.058c-1.803,2.863-4.492,3.762-7.648,2.56
					c-2.538-0.967-4.201-2.816-5.299-5.248c-0.323-0.716-0.729-1.394-1.097-2.089C185.937,74.084,185.937,72.804,185.937,71.524z"/>
				<path fill="#FFFFFF" d="M881.939,373.445c-0.846-0.177-1.69-0.367-2.538-0.53c-1.827-0.351-3.574-0.862-4.94-2.236
					c-1.519-1.527-2.11-3.62-1.387-5.245c0.821-1.844,2.449-2.402,4.298-2.513c0.636-0.039,1.281-0.023,1.917,0.028
					c9.531,0.766,18.62-0.855,27.231-5.039c1.629-0.792,3.307-1.184,5.106-0.866c2.751,0.487,4.034,2.722,3.075,5.346
					c-0.718,1.965-2.193,3.311-3.817,4.504c-3.008,2.209-6.413,3.611-9.996,4.495c-2.86,0.706-5.8,1.09-8.703,1.625
					c-0.698,0.129-1.39,0.286-2.085,0.431C887.379,373.445,884.659,373.445,881.939,373.445z"/>
				<path fill="#FFFFFF" d="M705.322,153.666c0.015-2.622,0.766-5.079,2.017-7.325c9.875-17.736,21.151-34.463,35.415-49.038
					c9.537-9.745,20.595-17.45,32.355-24.196c15.624-8.962,32.121-15.775,49.789-19.505c4.6-0.971,9.301-1.483,13.969-2.101
					c2.315-0.307,4.638-0.14,6.834,0.791c3.359,1.424,5.055,4.659,4.122,7.956c-0.719,2.539-2.476,4.126-5.011,4.631
					c-2.184,0.436-4.425,0.615-6.649,0.815c-11.775,1.06-23.178,3.684-34.173,8.046c-12.518,4.967-23.92,11.834-34.205,20.493
					c-12.446,10.48-23.86,21.991-33.908,34.822c-6.282,8.022-11.548,16.683-16.299,25.676c-0.559,1.058-1.14,2.119-1.847,3.079
					c-2.118,2.875-5.118,4.001-7.914,3.064C707.01,159.935,705.327,157.234,705.322,153.666z"/>
				<path fill="#FFFFFF" d="M1287.636,108.165c-4.638,0.048-7.479-2.62-7.746-7.293c-0.188-3.288,0.687-6.347,2.169-9.229
					c3.895-7.575,10.101-12.572,18.052-15.221c4.139-1.379,8.514-2.153,12.837-2.861c16.877-2.761,33.772-5.409,50.672-8.022
					c1.455-0.225,3.048-0.097,4.488,0.244c2.599,0.616,4.168,2.725,4.368,5.382c0.307,4.052-2.243,7.689-6.263,8.452
					c-4.314,0.82-8.681,1.361-13.031,1.985c-10.518,1.511-21.046,2.906-31.356,5.644c-6.229,1.654-11.2,4.927-15.035,10.041
					c-0.719,0.959-1.516,1.859-2.257,2.802C1300.74,104.919,1296.212,107.8,1287.636,108.165z"/>
				<path fill="#FFFFFF" d="M1530.592,324.957c-0.188,3.916-1.538,7.486-3.332,10.905c-3.295,6.277-8.06,11.283-13.671,15.518
					c-8.867,6.694-18.901,10.962-29.542,13.836c-4.769,1.288-9.652,2.162-14.499,3.142c-2.077,0.42-4.156,0.144-6.104-0.702
					c-3.544-1.539-4.582-5.107-2.426-8.321c1.612-2.404,4.058-3.507,6.767-4.168c3.333-0.814,6.712-1.487,9.983-2.502
					c12.673-3.934,23.887-10.32,32.754-20.35c2.256-2.552,4.104-5.49,5.948-8.373c1.28-2.001,2.702-3.739,4.846-4.826
					C1525.323,317.083,1530.879,317.96,1530.592,324.957z"/>
				<path fill="#FFFFFF" d="M1114.532,76.275c0.171-2.271,0.751-4.361,1.773-6.277c3.505-6.567,7.95-12.378,14.069-16.75
					c5.641-4.03,11.911-6.131,18.889-5.824c4.714,0.207,8.308,3.142,9.382,7.533c1.048,4.284-1.165,8.122-5.381,9.318
					c-0.538,0.153-1.086,0.274-1.635,0.378c-7.691,1.457-13.693,5.546-18.285,11.792c-1.135,1.544-2.237,3.126-3.198,4.781
					c-1.591,2.74-3.881,4.314-7.048,4.101c-3.438-0.231-6.077-1.954-7.501-5.166C1115.058,78.947,1114.876,77.576,1114.532,76.275z"
					/>
				<path fill="#FFFFFF" d="M436.737,42.978c6.104-0.315,10.439,6.241,10.454,11.272c0.012,4.294-2.259,6.82-6.545,6.816
					c-7.086-0.006-12.629,2.91-16.858,8.494c-1.06,1.4-2.125,2.801-3.105,4.257c-0.988,1.469-2.345,2.044-4.06,2.1
					c-5.438,0.177-10.078-3.413-10.64-8.321c-0.234-2.039,0.273-3.969,1.098-5.814C412.479,49.699,421.902,43.614,436.737,42.978z"
					/>
				<path fill="#FFFFFF" d="M551.189,229.216c-1.199-0.195-2.913-0.257-4.463-0.795c-1.224-0.425-2.451-1.251-3.316-2.221
					c-2.593-2.908-1.447-7.245,2.178-8.662c0.661-0.259,1.379-0.422,2.085-0.51c6.904-0.864,12.798-3.899,17.831-8.566
					c1.608-1.491,2.908-3.391,4.059-5.28c1.806-2.964,3.551-4.207,6.011-3.783c2.785,0.479,5.019,2.891,5.459,5.944
					c0.303,2.1,0.192,4.215-0.847,6.071c-1.241,2.215-2.484,4.517-4.175,6.374C569.51,224.926,561.188,228.348,551.189,229.216z"/>
				<path fill="#FFFFFF" d="M267.601,283.041c0.049,2.113-0.757,3.915-2.169,5.41c-3.324,3.519-7.506,5.38-12.269,5.752
					c-3.828,0.299-6.951-3.931-5.895-7.67c0.345-1.222,1.138-1.798,2.333-2.1c1.693-0.429,3.399-0.881,5.012-1.539
					c2.637-1.076,4.916-2.721,6.281-5.289c1.022-1.923,2.798-2.157,4.479-0.449C266.748,278.552,267.616,280.794,267.601,283.041z"
					/>
			</g>
		</g>
	</g>
	<g id="Cassics">
		<path d="M1830.057,447.929v27v26v27v24.5v51.5v27h-26.5v26h-27h-130h-27v-26h-25v-27v-26v-24.5v-27v-51.5v-27h25v-26h27h130h27v26
			H1830.057z M535.557,576.929h27v27v26v27h-208.5v-26h-24v26h-184v-26h-25v-27v-129v-27h25v-26h27h130h27v26h24v-26h27h52h27v27
			v128H535.557z M354.057,550.929v-23h-25.5h-52h-27v-26h-22.5v75h22.5v-26h27h52H354.057z M1285.557,421.929h-27v26h-23.75v-26h-27
			h-130h-27v26h-22.25h-2.75h-23.75v-26h-27h-130h-27v26h-25v27v51.5v27v24.5v26v27h25v26h184v-25.833h23.75h2.75h22.25v25.833h184
			v-26h23.75v26h106v-27v-181v-27h-27H1285.557z"/>
		<path d="M1776.557,422.429v-26h-27h-130h-27v26h-5.5v-17.033h-27h-2.667v-25.8h-27h-1.6v-25.333h-27h-84.267h-27v25.333h-1h-27
			v25.8h-16.667v26.867h-8.3v-8.833v-27h-27h-52h-27v26h-23.75v-26h-27h-130h-27v26h-22.25h-2.75h-23.75v-26h-27h-130h-27v26
			h-19.975v-20h-15.575v-16.9h-15.925v-15.075h-27h-4.85v-15.975h-27h-16.925h-27.475h-16.925h-27v15.975h-4.85h-27v15.075h-15.925
			v16.9h-15.575v27v20.25h-16.5v27v74.75h-4h-75.5v-128v-27h-27h-52h-27v26h-24v-26h-27h-130h-27v26h-25v27v129v27h25v26h27h130h27
			v-26h24v26h27h52h102.5h4v25.5h275.025v-27.5v-24h3.475v26h27h130h27v-26h23.75h2.75h22.25v25.667h27l130,0.333h27v-26h23.75v26
			h27h52h27v-27v-25.5h8.3v26.867h16.667v25.8h27h1v25.333h27h84.267h27v-25.333h1.6h27v-25.8h2.667h27v-0.367h5.5v26h27h130h27v-26
			h26.5v-27v-51.5v-24.5v-27v-26v-27H1776.557z M301.557,525.429h-52h-27v26h-22.5v-75h22.5v26h27h52h25.5v23H301.557z
			 M1560.057,520.596h-2.667v-14.667v-15.333h2.667h7.5v10.333v19.667H1560.057z"/>
	</g>
	<g id="Joystick_1_">
		<circle cx="2001.807" cy="250.679" r="152.25"/>
		<g>
			<path d="M2078.626,534.33c-5.231-14.494-13.734-28.023-25.273-40.213c-23.076-24.377-55.969-40.88-92.618-46.468
				c-8.868-1.352-17.847-2.038-26.687-2.038c-31.662,0-62.017,8.854-85.474,24.931c-24.717,16.941-40.583,41.045-44.673,67.873
				c-2.383,15.629-0.78,31.342,4.764,46.703c5.231,14.494,13.734,28.023,25.273,40.213c23.076,24.377,55.969,40.88,92.618,46.468
				c8.868,1.352,17.847,2.038,26.687,2.038c31.662,0,62.017-8.854,85.475-24.931c24.717-16.941,40.583-41.045,44.673-67.873
				C2085.773,565.404,2084.17,549.691,2078.626,534.33z"/>
			<g>
				<path fill="#FFFFFF" d="M1936.243,638.338c-8.463,0-17.062-0.657-25.558-1.953c-35.008-5.338-66.367-21.038-88.302-44.209
					c-22.418-23.683-32.387-52.317-28.069-80.63c7.637-50.084,59.253-86.436,122.732-86.436c8.463,0,17.062,0.657,25.558,1.953
					c35.008,5.338,66.367,21.038,88.302,44.209c22.418,23.683,32.387,52.316,28.069,80.63
					C2051.339,601.986,1999.723,638.338,1936.243,638.338z"/>
				<path d="M1917.048,432.611c7.995,0,16.164,0.607,24.426,1.867c68.99,10.52,118.277,62.587,110.088,116.295
					c-7.209,47.276-56.551,80.066-115.319,80.066c-7.995,0-16.164-0.607-24.426-1.867c-68.989-10.52-118.277-62.587-110.088-116.295
					C1808.938,465.4,1858.28,432.611,1917.048,432.611 M1917.048,417.611c-31.662,0-62.017,8.854-85.474,24.931
					c-24.717,16.941-40.583,41.045-44.673,67.873c-2.383,15.629-0.78,31.342,4.764,46.703c5.231,14.494,13.734,28.023,25.273,40.213
					c23.076,24.377,55.969,40.88,92.618,46.468c8.868,1.352,17.847,2.038,26.687,2.038c31.662,0,62.017-8.854,85.475-24.931
					c24.717-16.941,40.583-41.045,44.673-67.873c2.383-15.629,0.78-31.342-4.764-46.703c-5.231-14.494-13.734-28.023-25.273-40.213
					c-23.076-24.377-55.969-40.88-92.618-46.468C1934.867,418.296,1925.888,417.611,1917.048,417.611L1917.048,417.611z"/>
			</g>
			<g>
				<defs>
					
						<ellipse id="SVGID_13_" transform="matrix(0.1507 -0.9886 0.9886 0.1507 1110.5712 2356.2009)" cx="1926.645" cy="531.724" rx="98.371" ry="126.36"/>
				</defs>
				<clipPath id="SVGID_14_">
					<use xlink:href="#SVGID_13_"  overflow="visible"/>
				</clipPath>
				<g clip-path="url(#SVGID_14_)">
					
						<ellipse transform="matrix(0.1717 -0.9851 0.9851 0.1717 1075.4705 2330.3213)" cx="1923.554" cy="525.589" rx="95.809" ry="127.854"/>
				</g>
			</g>
		</g>
		<g>
			
				<ellipse transform="matrix(0.2575 -0.9663 0.9663 0.2575 945.5609 2241.3938)" fill="#FFFFFF" cx="1931.187" cy="505.449" rx="31.876" ry="43.758"/>
			<g>
				<path fill="#737373" d="M1937.128,528.792c-3.392,0-6.83-0.366-10.219-1.09c-21.16-4.518-35.439-21.948-31.831-38.857
					l48.358-226.559l76.753,16.382l-48.358,226.559c-2.961,13.874-17.23,23.564-34.701,23.564
					C1937.129,528.792,1937.129,528.792,1937.128,528.792z"/>
				<path d="M1947.667,268.813l65.995,14.086l-47.21,221.18c-2.478,11.61-14.775,19.213-29.324,19.213
					c-2.951,0-5.998-0.313-9.071-0.969c-18.224-3.89-30.581-18.365-27.6-32.33L1947.667,268.813 M1939.205,255.759l-2.296,10.758
					l-47.21,221.18c-2.141,10.031,0.862,20.74,8.24,29.382c6.775,7.936,16.656,13.619,27.822,16.002
					c3.766,0.804,7.591,1.212,11.367,1.212c20.091,0,36.573-11.48,40.082-27.917l47.21-221.18l2.296-10.758l-10.758-2.296
					l-65.995-14.086L1939.205,255.759L1939.205,255.759z"/>
			</g>
			<g>
				<defs>
					<path id="SVGID_15_" d="M1947.667,268.813l-47.21,221.18c-2.981,13.965,9.376,28.44,27.6,32.33
						c18.224,3.89,35.414-4.278,38.395-18.244l47.21-221.18L1947.667,268.813z"/>
				</defs>
				<clipPath id="SVGID_16_">
					<use xlink:href="#SVGID_15_"  overflow="visible"/>
				</clipPath>
				<path clip-path="url(#SVGID_16_)" fill="#BFBFBF" d="M1976.606,479.429c0.894-28.227-22.647-63.076-61.112-86.233
					c-48.426-29.153-102.165-28.733-120.028,0.939c-17.863,29.672,6.913,77.36,55.34,106.513
					c13.302,8.008,27.001,13.77,40.251,17.322v27.959h120v-66.5H1976.606z"/>
			</g>
		</g>
		<g>
			
				<ellipse transform="matrix(0.1891 -0.982 0.982 0.1891 1389.7225 2136.9238)" cx="1988.724" cy="227.014" rx="142.667" ry="142.666"/>
			<path d="M1988.724,87.347c77.136,0,139.667,62.531,139.667,139.667c0,77.136-62.531,139.667-139.667,139.667
				c-77.136,0-139.667-62.531-139.667-139.667C1849.057,149.878,1911.588,87.347,1988.724,87.347 M1988.724,81.347
				c-38.909,0-75.489,15.152-103.002,42.665s-42.665,64.093-42.665,103.002c0,38.909,15.152,75.489,42.665,103.002
				c27.513,27.513,64.093,42.665,103.002,42.665s75.489-15.152,103.002-42.665c27.513-27.513,42.665-64.093,42.665-103.002
				c0-38.909-15.152-75.489-42.665-103.002S2027.633,81.347,1988.724,81.347L1988.724,81.347z"/>
		</g>
		<g>
			<g>
				<circle fill="#890300" cx="1988.724" cy="227.014" r="139.667"/>
			</g>
			<g>
				<defs>
					<circle id="SVGID_17_" cx="1988.724" cy="227.014" r="139.667"/>
				</defs>
				<clipPath id="SVGID_18_">
					<use xlink:href="#SVGID_17_"  overflow="visible"/>
				</clipPath>
				<g clip-path="url(#SVGID_18_)">
					<circle fill="#D80500" cx="1980.882" cy="203.172" r="129.509"/>
				</g>
			</g>
			<g>
				<path fill="#D80500" d="M1988.724,93.347c35.704,0,69.27,13.904,94.517,39.15c25.246,25.246,39.15,58.813,39.15,94.517
					s-13.904,69.27-39.15,94.517c-25.247,25.246-58.813,39.15-94.517,39.15s-69.27-13.904-94.517-39.15
					c-25.246-25.246-39.15-58.813-39.15-94.517s13.904-69.27,39.15-94.517S1953.02,93.347,1988.724,93.347 M1988.724,87.347
					c-77.136,0-139.667,62.531-139.667,139.667c0,77.136,62.531,139.667,139.667,139.667c77.136,0,139.667-62.531,139.667-139.667
					C2128.391,149.878,2065.86,87.347,1988.724,87.347L1988.724,87.347z"/>
			</g>
		</g>
		<g>
			<circle fill="#FFFFFF" cx="1918.471" cy="206.352" r="15.222"/>
			<circle fill="#FFFFFF" cx="1962.096" cy="176.141" r="30.211"/>
		</g>
	</g>
	<g id="Classics_2_">
		<g>
			<polygon fill="#FFFFFF" points="276.057,423.429 146.057,423.429 146.057,449.429 121.057,449.429 121.057,578.429 
				146.057,578.429 146.057,604.429 276.057,604.429 276.057,578.429 301.557,578.429 301.557,552.429 249.557,552.429 
				249.557,578.429 173.057,578.429 173.057,449.429 249.557,449.429 249.557,475.429 301.557,475.429 301.557,449.429 
				276.057,449.429 			"/>
			<polygon fill="#FFFFFF" points="948.057,423.429 818.057,423.429 818.057,449.429 793.057,449.429 793.057,500.929 
				818.057,500.929 818.057,526.929 922.557,526.929 922.557,578.429 845.057,578.429 845.057,552.429 793.057,552.429 
				793.057,578.429 818.057,578.429 818.057,604.429 948.057,604.429 948.057,578.429 974.557,578.429 974.557,526.929 
				948.057,526.929 948.057,500.929 845.057,500.929 845.057,449.429 922.557,449.429 922.557,475.429 974.557,475.429 
				974.557,449.429 948.057,449.429 			"/>
			<polygon fill="#FFFFFF" points="1180.807,423.429 1050.807,423.429 1050.807,449.429 1025.807,449.429 1025.807,500.929 
				1050.807,500.929 1050.807,526.929 1155.307,526.929 1155.307,578.429 1077.807,578.429 1077.807,552.429 1025.807,552.429 
				1025.807,578.429 1050.807,578.429 1050.807,604.429 1180.807,604.429 1180.807,578.429 1207.307,578.429 1207.307,526.929 
				1180.807,526.929 1180.807,500.929 1077.807,500.929 1077.807,449.429 1155.307,449.429 1155.307,475.429 1207.307,475.429 
				1207.307,449.429 1180.807,449.429 			"/>
			<polygon fill="#FFFFFF" points="1749.557,423.429 1619.557,423.429 1619.557,449.429 1594.557,449.429 1594.557,500.929 
				1619.557,500.929 1619.557,526.929 1724.057,526.929 1724.057,578.429 1646.557,578.429 1646.557,552.429 1594.557,552.429 
				1594.557,578.429 1619.557,578.429 1619.557,604.429 1749.557,604.429 1749.557,578.429 1776.057,578.429 1776.057,526.929 
				1749.557,526.929 1749.557,500.929 1646.557,500.929 1646.557,449.429 1724.057,449.429 1724.057,475.429 1776.057,475.429 
				1776.057,449.429 1749.557,449.429 			"/>
			<polygon fill="#FFFFFF" points="406.057,423.429 354.057,423.429 354.057,578.429 354.057,604.429 406.057,604.429 
				508.557,604.429 508.557,578.429 406.057,578.429 			"/>
			<rect x="1258.557" y="423.429" fill="#FFFFFF" width="52" height="181"/>
		</g>
		<g>
			<polygon fill="#FFF301" points="1560.057,432.396 1530.391,432.396 1530.391,406.596 1501.791,406.596 1501.791,381.263 
				1417.524,381.263 1417.524,406.596 1389.524,406.596 1389.524,432.396 1372.857,432.396 1372.857,459.263 1359.891,459.263 
				1359.891,527.263 1418.391,527.263 1418.391,494.929 1475.724,494.929 1475.724,478.929 1530.391,478.929 1530.391,463.596 
				1560.057,463.596 			"/>
			<polygon fill="#FFF301" points="1560.057,578.796 1530.391,578.796 1530.391,604.596 1501.791,604.596 1501.791,629.929 
				1417.524,629.929 1417.524,604.596 1389.524,604.596 1389.524,578.796 1372.857,578.796 1372.857,551.929 1359.891,551.929 
				1359.891,483.929 1418.391,483.929 1418.391,516.263 1475.724,516.263 1475.724,532.263 1530.391,532.263 1530.391,547.596 
				1560.057,547.596 			"/>
		</g>
		<g>
			<g>
				<polygon fill="#FF8B00" points="663.807,479.179 663.807,479.179 663.807,429.429 663.807,381.479 619.407,381.479 
					619.407,429.429 556.057,429.429 556.057,476.679 556.057,476.679 539.557,476.679 539.557,629.429 553.807,629.429 
					553.807,610.429 569.057,610.429 569.057,590.179 586.657,590.179 586.657,610.429 601.907,610.429 601.907,629.429 
					633.307,629.429 633.307,590.179 663.807,590.179 				"/>
				<rect x="571.632" y="412.529" fill="#FFFFFF" width="63.7" height="45.4"/>
				<rect x="587.557" y="397.454" fill="#001685" width="31.85" height="31.85"/>
				<rect x="587.557" y="445.204" fill="#FFFFFF" width="31.85" height="31.85"/>
			</g>
			<g>
				<polygon fill="#FF8B00" points="636.332,479.179 636.332,479.179 636.332,429.429 636.332,381.479 680.732,381.479 
					680.732,429.429 744.082,429.429 744.082,476.679 744.082,476.679 760.582,476.679 760.582,629.429 746.332,629.429 
					746.332,610.429 731.082,610.429 731.082,590.179 713.482,590.179 713.482,610.429 698.232,610.429 698.232,629.429 
					666.832,629.429 666.832,590.179 636.332,590.179 				"/>
				
					<rect x="664.807" y="412.529" transform="matrix(-1 -4.488955e-11 4.488955e-11 -1 1393.3147 870.4589)" fill="#FFFFFF" width="63.7" height="45.4"/>
				
					<rect x="680.732" y="397.454" transform="matrix(-1 -4.488955e-11 4.488955e-11 -1 1393.3147 826.7589)" fill="#001685" width="31.85" height="31.85"/>
				
					<rect x="680.732" y="445.204" transform="matrix(-1 -4.488955e-11 4.488955e-11 -1 1393.3147 922.2589)" fill="#FFFFFF" width="31.85" height="31.85"/>
			</g>
		</g>
	</g>
</g>
</svg>
