<?xml version="1.0" encoding="utf-8"?>
<!-- Svg Vector Icons : http://www.onlinewebfonts.com/icon -->
<!DOCTYPE svg PUBLIC "-//W3C//DTD SVG 1.1//EN" "http://www.w3.org/Graphics/SVG/1.1/DTD/svg11.dtd">
<svg version="1.1" xmlns="http://www.w3.org/2000/svg" xmlns:xlink="http://www.w3.org/1999/xlink" x="0px" y="0px" viewBox="0 0 1000 1000" enable-background="new 0 0 1000 1000" xml:space="preserve">
<metadata> Svg Vector Icons : http://www.onlinewebfonts.com/icon </metadata>
<g><g><g><path fill="#FFFFFF" d="M10,436.7h99V109h327.7V10H10V436.7z M43,43h217.7h143v33h-143H76v327.7H43V43z"/><path fill="#FFFFFF" d="M891,891H563.3v99H990V563.3h-99V891z M924,687.9v-91.7h33v91.7V957H596.3v-33H924V687.9z"/><path fill="#FFFFFF" d="M109,563.3H10V990h426.7v-99H109V563.3z M403.7,924v33H43V596.3h33V924H403.7z"/><path fill="#FFFFFF" d="M563.3,10v99H891v327.7h99V10H563.3z M957,403.7h-33V76H596.3V43H957V403.7L957,403.7z"/></g></g><g></g><g></g><g></g><g></g><g></g><g></g><g></g><g></g><g></g><g></g><g></g><g></g><g></g><g></g><g></g></g>
</svg>